<?xml version="1.0" standalone="no"?>
<!DOCTYPE svg PUBLIC "-//W3C//DTD SVG 1.1//EN" "http://www.w3.org/Graphics/SVG/1.1/DTD/svg11.dtd" >
<svg xmlns="http://www.w3.org/2000/svg" xmlns:xlink="http://www.w3.org/1999/xlink" version="1.1">
<metadata>
Created by FontForge 20161003 at Thu Aug 24 17:17:58 2017
 By www-data
Copyright 1990-1993 as an unpublished work by Bitstream Inc.  All rights reserved.  Confidential.
</metadata>
<defs>
<font id="CharterITCbyBT-Roman" horiz-adv-x="500" >
  <font-face 
    font-family="ITC Charter"
    font-weight="500"
    font-stretch="normal"
    units-per-em="1000"
    panose-1="0 0 0 0 0 0 0 0 0 0"
    ascent="800"
    descent="-200"
    x-height="481"
    cap-height="671"
    bbox="-152 -236 1193 963"
    underline-thickness="61"
    underline-position="-109"
    stemh="43"
    stemv="83"
    unicode-range="U+0020-FB02"
  />
<missing-glyph horiz-adv-x="278" 
 />
    <glyph glyph-name=".notdef" horiz-adv-x="278" 
 />
    <glyph glyph-name="space" unicode=" " horiz-adv-x="278" 
 />
    <glyph glyph-name="exclam" unicode="!" horiz-adv-x="338" 
d="M221 553l-28 -382h-48l-28 382c-2 22 -3 41 -3 58c0 47 19 72 55 72s55 -25 55 -72c0 -17 -1 -36 -3 -58zM169 105c32 0 57 -25 57 -57c0 -31 -25 -57 -57 -57c-31 0 -57 25 -57 57s26 57 57 57z" />
    <glyph glyph-name="quotedbl" unicode="&#x22;" horiz-adv-x="331" 
d="M93 422h-16l-31 223c-1 7 -2 14 -2 20c0 32 15 49 41 49s42 -17 42 -49c0 -5 -1 -12 -2 -20zM253 422h-15l-32 223c-1 7 -2 13 -2 19c0 33 16 50 42 50s41 -17 41 -49c0 -5 0 -12 -1 -20z" />
    <glyph glyph-name="numbersign" unicode="#" horiz-adv-x="745" 
d="M370 710l47 -18l-79 -222h154l80 239l47 -17l-78 -222h139v-47h-155l-49 -146h163v-47h-179l-84 -253l-47 16l80 237h-153l-83 -253l-47 16l82 237h-144v47h159l48 146h-158v47h174zM323 423l-49 -146h149l51 146h-151z" />
    <glyph glyph-name="dollar" unicode="$" horiz-adv-x="556" 
d="M259 743h42v-71h8c47 0 101 -8 161 -22v-156h-45l-15 93l-15 21c-31 12 -62 17 -94 17v-245c136 -37 197 -88 197 -188c0 -95 -73 -170 -197 -192v-102h-42v102c-85 3 -151 12 -201 25v168h46l18 -109l9 -13c36 -17 78 -25 128 -25v261c-123 28 -183 89 -183 182
c0 91 65 160 183 180v74zM259 622c-63 -14 -98 -57 -98 -115c0 -56 32 -94 98 -115v230zM301 294v-244c72 11 114 60 114 124c0 58 -37 98 -114 120z" />
    <glyph glyph-name="percent" unicode="%" horiz-adv-x="852" 
d="M181 683c91 0 150 -77 150 -209c0 -133 -59 -210 -150 -210s-150 76 -150 210c0 133 60 209 150 209zM608 671h61l-428 -671h-60zM179 647c-50 0 -78 -59 -78 -173c0 -115 27 -174 78 -174c52 0 80 58 80 174c0 115 -29 173 -80 173zM671 407c91 0 150 -77 150 -209
c0 -133 -59 -210 -150 -210s-150 76 -150 210c0 133 60 209 150 209zM669 372c-50 0 -78 -60 -78 -174c0 -115 27 -174 78 -174c52 0 80 58 80 174c0 115 -29 174 -80 174z" />
    <glyph glyph-name="ampersand" unicode="&#x26;" horiz-adv-x="704" 
d="M276 390c67 31 98 73 98 138c0 67 -38 109 -98 109c-53 0 -93 -41 -93 -98c0 -53 33 -95 93 -149zM311 357l172 -186c30 42 49 81 56 118l-18 19l-55 8v41h203v-41l-72 -10c-18 -61 -44 -117 -83 -170l78 -90l91 -5v-41h-176v24l-45 50c-66 -57 -130 -86 -196 -86
c-125 0 -213 85 -213 197c0 80 44 139 132 179c-54 53 -82 99 -82 153c0 92 77 166 182 166c106 0 173 -66 173 -155c0 -75 -48 -125 -147 -171zM223 335c-53 -36 -78 -76 -78 -129c0 -92 60 -158 152 -158c46 0 91 20 134 60z" />
    <glyph glyph-name="quoteright" unicode="&#x2019;" horiz-adv-x="201" 
d="M74 442h-43c53 59 80 108 80 154c0 8 0 15 -2 23h-65c-9 13 -13 24 -13 35c0 34 24 59 60 59c47 0 79 -36 79 -92c0 -58 -32 -118 -96 -179z" />
    <glyph glyph-name="parenleft" unicode="(" horiz-adv-x="417" 
d="M386 718v-42c-137 -24 -195 -152 -195 -392c0 -235 61 -361 195 -384v-42c-174 20 -280 170 -280 427c0 260 102 411 280 433z" />
    <glyph glyph-name="parenright" unicode=")" horiz-adv-x="417" 
d="M31 718c178 -22 280 -172 280 -433c0 -257 -106 -407 -280 -427v42c134 23 195 149 195 384c0 240 -58 368 -195 392v42z" />
    <glyph glyph-name="asterisk" unicode="*" 
d="M250 718l39 -61l-32 -125h-14l-32 125zM377 589l70 -18l-46 -56l-128 -8l-4 13zM266 491l99 -81l4 -72l-67 26l-47 120zM234 491l10 -7l-47 -121l-67 -25l4 72zM123 589l109 -70l-4 -12l-129 8l-45 56z" />
    <glyph glyph-name="plus" unicode="+" horiz-adv-x="833" 
d="M388 596h58v-269h263v-57h-263v-270h-58v270h-264v57h264v269z" />
    <glyph glyph-name="comma" unicode="," horiz-adv-x="278" 
d="M39 -169v33c73 14 110 59 110 132v11h-64c-11 12 -16 26 -16 44c0 33 25 55 59 55c49 0 80 -37 80 -96c0 -91 -67 -168 -169 -179z" />
    <glyph glyph-name="hyphen" unicode="-" horiz-adv-x="319" 
d="M47 274h225v-67h-225v67z" />
    <glyph glyph-name="period" unicode="." horiz-adv-x="278" 
d="M139 118c35 0 63 -28 63 -64c0 -35 -28 -63 -63 -63s-64 28 -64 63c0 36 29 64 64 64z" />
    <glyph glyph-name="slash" unicode="/" horiz-adv-x="481" 
d="M399 671h61l-428 -764h-60z" />
    <glyph glyph-name="zero" unicode="0" horiz-adv-x="556" 
d="M278 683c143 0 237 -126 237 -347s-94 -348 -237 -348s-237 127 -237 348s94 347 237 347zM278 636c-92 0 -143 -102 -143 -300s51 -300 143 -300s142 102 142 300s-50 300 -142 300z" />
    <glyph glyph-name="one" unicode="1" horiz-adv-x="556" 
d="M311 683h28v-621l12 -15l108 -5v-42h-335v42l115 7l12 17v538l-157 -28v42z" />
    <glyph glyph-name="two" unicode="2" horiz-adv-x="556" 
d="M141 79h301l18 85h45v-164h-463v63c219 178 344 288 344 419c0 95 -50 150 -133 150c-30 0 -59 -7 -89 -24v-107c-14 -10 -29 -15 -45 -15c-35 0 -56 22 -56 56c0 70 88 141 212 141c129 0 208 -75 208 -189c0 -126 -121 -239 -342 -415z" />
    <glyph glyph-name="three" unicode="3" horiz-adv-x="556" 
d="M317 353c111 -8 175 -69 175 -160c0 -112 -100 -204 -253 -204c-119 0 -198 59 -198 110c0 29 23 51 56 51c9 0 19 -1 30 -5l31 -85c28 -16 55 -24 85 -24c91 0 157 69 157 158c0 79 -52 125 -148 125c-16 0 -34 -1 -53 -4v59c7 0 14 -1 21 -1c101 0 155 48 155 129
c0 79 -50 130 -127 130c-35 0 -66 -9 -95 -29v-94c-13 -10 -25 -13 -41 -13c-31 0 -54 22 -54 54c0 66 86 133 211 133c120 0 197 -67 197 -168c0 -77 -51 -134 -149 -162z" />
    <glyph glyph-name="four" unicode="4" horiz-adv-x="556" 
d="M368 677h58v-418h113v-65h-113v-231h-77v231h-322v65zM349 568l-247 -309h247v309z" />
    <glyph glyph-name="five" unicode="5" horiz-adv-x="556" 
d="M101 671h358v-78h-296v-200c39 11 75 16 107 16c134 0 219 -79 219 -192c0 -128 -106 -227 -260 -227c-110 0 -179 45 -179 95c0 31 24 53 58 53c7 0 15 -1 24 -3l40 -86c23 -8 45 -12 67 -12c94 0 158 67 158 160c0 103 -69 150 -208 150c-36 0 -65 -2 -88 -6v330z" />
    <glyph glyph-name="six" unicode="6" horiz-adv-x="556" 
d="M443 714v-58h-3c-160 0 -261 -94 -293 -272c52 40 110 61 170 61c119 0 208 -91 208 -218c0 -135 -105 -239 -242 -239c-135 0 -233 109 -233 289c0 256 148 421 393 437zM145 340c-1 -20 -2 -40 -2 -58c0 -161 54 -246 148 -246c83 0 143 76 143 182
c0 103 -59 167 -144 167c-55 0 -104 -15 -145 -45z" />
    <glyph glyph-name="seven" unicode="7" horiz-adv-x="556" 
d="M71 671h460v-40l-332 -646v-22h-83l326 632h-308l-16 -91h-47v167z" />
    <glyph glyph-name="eight" unicode="8" horiz-adv-x="556" 
d="M321 369c52 34 81 84 81 142c0 75 -50 126 -122 126c-69 0 -121 -52 -121 -118s53 -111 162 -150zM363 351c94 -33 143 -93 143 -171c0 -107 -92 -196 -231 -196c-144 0 -231 80 -231 193c0 79 47 138 137 173c-69 29 -105 82 -105 154c0 106 83 181 207 181
c120 0 195 -72 195 -168c0 -66 -41 -127 -115 -166zM219 329c-68 -36 -98 -80 -98 -146c0 -88 61 -147 157 -147c86 0 142 55 142 134c0 78 -66 110 -201 159z" />
    <glyph glyph-name="nine" unicode="9" horiz-adv-x="556" 
d="M411 319c8 35 12 71 12 107c0 135 -55 208 -145 208c-82 0 -141 -68 -141 -178c0 -111 53 -172 148 -172c39 0 81 12 126 35zM126 -52l-23 46c154 72 251 160 295 275c-56 -26 -106 -39 -150 -39c-121 0 -205 86 -205 216c0 137 99 235 244 235c140 0 225 -95 225 -256
c0 -198 -139 -383 -386 -477z" />
    <glyph glyph-name="colon" unicode=":" horiz-adv-x="319" 
d="M159 481c35 0 64 -27 64 -63c0 -35 -29 -64 -64 -64s-63 29 -63 64c0 36 28 63 63 63zM159 118c35 0 64 -28 64 -64c0 -35 -29 -63 -64 -63s-63 28 -63 63c0 36 28 64 63 64z" />
    <glyph glyph-name="semicolon" unicode=";" horiz-adv-x="319" 
d="M159 481c35 0 64 -27 64 -63c0 -35 -29 -64 -64 -64s-63 29 -63 64c0 36 28 63 63 63zM65 -169v33c73 14 110 59 110 132v11h-65c-11 12 -16 26 -16 44c0 33 25 55 59 55c49 0 80 -37 80 -96c0 -91 -66 -168 -168 -179z" />
    <glyph glyph-name="less" unicode="&#x3c;" horiz-adv-x="833" 
d="M704 559v-62l-488 -199l488 -198v-63l-575 236v50z" />
    <glyph glyph-name="equal" unicode="=" horiz-adv-x="833" 
d="M124 420h585v-57h-585v57zM124 233h585v-57h-585v57z" />
    <glyph glyph-name="greater" unicode="&#x3e;" horiz-adv-x="833" 
d="M129 559l575 -236v-50l-575 -236v63l488 198l-488 199v62z" />
    <glyph glyph-name="question" unicode="?" horiz-adv-x="486" 
d="M227 288v-117h-53v146c96 36 145 96 145 179c0 89 -51 141 -140 141h-5l-41 -99c-6 -1 -12 -1 -18 -1c-39 0 -60 20 -60 53c0 50 58 93 147 93c128 0 208 -72 208 -180c0 -94 -60 -162 -183 -215zM200 105c32 0 58 -25 58 -57c0 -31 -26 -57 -58 -57c-31 0 -56 25 -56 57
s25 57 56 57z" />
    <glyph glyph-name="at" unicode="@" horiz-adv-x="942" 
d="M699 488c-13 -34 -19 -71 -27 -107l-39 -172c-6 -25 -8 -43 -8 -55c0 -26 16 -43 42 -43c27 0 59 18 88 52c43 52 70 129 70 209c0 164 -113 277 -290 277c-103 0 -195 -36 -264 -100c-83 -77 -124 -173 -124 -291c0 -219 144 -362 358 -362c89 0 178 24 262 73l14 -34
c-106 -59 -210 -88 -304 -88c-112 0 -212 39 -289 113c-74 71 -112 168 -112 286c0 133 49 245 145 332c79 72 191 114 307 114c213 0 343 -128 343 -319c0 -74 -19 -141 -55 -197c-49 -76 -127 -121 -191 -121c-48 0 -74 26 -74 77v9c-54 -56 -100 -84 -146 -84
c-71 0 -125 62 -125 160c0 63 20 122 56 171c49 66 123 104 193 104c32 0 64 -9 98 -27l18 23h54zM553 450c-13 1 -21 2 -25 2c-86 0 -163 -93 -163 -223c0 -73 30 -111 83 -111c36 0 70 22 105 66l41 210z" />
    <glyph glyph-name="A" unicode="A" horiz-adv-x="639" 
d="M284 679h66l240 -626l60 -12v-41h-227v41l62 5l7 14l-72 191h-236l-71 -191l10 -14l65 -5v-41h-196v41l58 12zM300 574l-99 -277h202z" />
    <glyph glyph-name="B" unicode="B" horiz-adv-x="604" 
d="M33 671h255c153 0 229 -51 229 -162c0 -76 -49 -127 -145 -153c121 -2 186 -61 186 -165c0 -119 -92 -191 -261 -191h-264v41l57 5l17 14v551l-17 14l-57 6v40zM197 367c13 -1 25 -1 37 -1c123 0 184 43 184 135c0 86 -53 126 -164 126c-15 0 -34 -2 -57 -3v-257zM197 50
c24 -2 46 -3 67 -3c134 0 196 41 196 142c0 91 -54 134 -165 134c-27 0 -59 -2 -98 -6v-267z" />
    <glyph glyph-name="C" unicode="C" horiz-adv-x="632" 
d="M588 23c-66 -23 -135 -35 -202 -35c-66 0 -124 14 -170 40c-107 61 -173 177 -173 308c0 208 139 347 347 347c58 0 124 -11 198 -34v-154h-56l-15 91l-13 18c-37 17 -73 26 -112 26c-150 0 -246 -107 -246 -294c0 -182 101 -295 261 -295c28 0 57 4 87 13l16 16l24 111
h54v-158z" />
    <glyph glyph-name="D" unicode="D" horiz-adv-x="693" 
d="M280 671c237 0 369 -125 369 -335c0 -119 -42 -212 -125 -274c-67 -51 -144 -62 -244 -62h-247v41l57 5l17 14v551l-17 14l-57 6v40h247zM197 625v-579h79c183 0 272 96 272 290c0 195 -89 289 -272 289h-79z" />
    <glyph glyph-name="E" unicode="E" horiz-adv-x="576" 
d="M33 0v41l57 5l17 14v551l-17 14l-57 6v40h479v-146h-56l-14 85l-14 15h-231v-253h164l14 14l10 73h47v-220h-47l-10 72l-14 15h-164v-280h268l14 16l17 101h52v-163h-515z" />
    <glyph glyph-name="F" unicode="F" horiz-adv-x="537" 
d="M33 0v41l57 5l17 14v551l-17 14l-65 6v40h480v-156h-55l-15 95l-13 15h-225v-263h164l14 14l10 73h47v-221h-47l-10 73l-14 15h-164v-256l17 -14l71 -5v-41h-252z" />
    <glyph glyph-name="G" unicode="G" horiz-adv-x="694" 
d="M417 322h250v-41l-55 -5l-17 -14v-239c-79 -23 -147 -35 -207 -35c-67 0 -126 14 -172 40c-108 61 -173 177 -173 308c0 211 138 347 359 347c61 0 126 -10 192 -29v-159h-56l-15 91l-14 18c-37 17 -74 26 -114 26c-153 0 -249 -107 -249 -287c0 -189 100 -302 257 -302
c29 0 63 4 102 13v208l-17 14l-71 5v41z" />
    <glyph glyph-name="H" unicode="H" horiz-adv-x="738" 
d="M33 671h243v-40l-62 -6l-17 -14v-236h344v236l-17 14l-62 6v40h243v-40l-57 -6l-17 -14v-551l17 -14l57 -5v-41h-243v41l62 5l17 14v269h-344v-269l17 -14l62 -5v-41h-243v41l57 5l17 14v551l-17 14l-57 6v40z" />
    <glyph glyph-name="I" unicode="I" horiz-adv-x="324" 
d="M35 0v41l64 5l17 14v551l-17 14l-64 6v40h254v-40l-64 -6l-17 -14v-551l17 -14l64 -5v-41h-254z" />
    <glyph glyph-name="J" unicode="J" horiz-adv-x="444" 
d="M271 611l-17 14l-67 6v40h253v-40l-62 -6l-17 -14v-355c0 -181 -65 -268 -218 -268c-42 0 -85 8 -131 24v167h56l24 -126l14 -13c14 -3 25 -4 35 -4c95 0 130 71 130 216v359z" />
    <glyph glyph-name="K" unicode="K" horiz-adv-x="611" 
d="M33 0v41l57 5l17 14v551l-17 14l-57 6v40h243v-40l-62 -6l-17 -14v-271h38l222 271l-6 14l-56 6v40h208v-40l-66 -9l-210 -250l227 -326l73 -5v-41h-165v30l-191 269h-74v-239l17 -14l62 -5v-41h-243z" />
    <glyph glyph-name="L" unicode="L" horiz-adv-x="520" 
d="M27 0v41l63 5l17 14v551l-17 14l-63 6v40h244v-40l-57 -6l-17 -14v-565h226l14 16l17 120h52v-182h-479z" />
    <glyph glyph-name="M" unicode="M" horiz-adv-x="866" 
d="M31 0v41l60 8l18 19v543l-13 14l-66 6v40h212v-27l188 -502l190 498v31h214v-40l-63 -6l-12 -14v-551l12 -14l63 -5v-41h-239v41l66 5l10 14v564l-237 -624h-43l-228 614v-546l18 -19l61 -8v-41h-211z" />
    <glyph glyph-name="N" unicode="N" horiz-adv-x="713" 
d="M29 0v41l61 8l18 19v543l-18 14l-64 6v40h188v-25l341 -512v470l-18 18l-60 9v40h210v-40l-60 -9l-18 -18v-604h-66l-381 568v-500l18 -19l60 -8v-41h-211z" />
    <glyph glyph-name="O" unicode="O" horiz-adv-x="731" 
d="M366 688c86 0 160 -30 220 -88c67 -65 103 -155 103 -264s-36 -200 -104 -266c-59 -57 -134 -86 -219 -86s-161 29 -220 86c-68 66 -103 157 -103 266s35 199 102 264c60 58 135 88 221 88zM366 634c-130 0 -219 -110 -219 -298c0 -186 90 -299 219 -299s218 113 218 299
s-89 298 -218 298z" />
    <glyph glyph-name="P" unicode="P" horiz-adv-x="558" 
d="M33 0v41l57 5l17 14v551l-17 14l-65 6v40h228c190 0 278 -54 278 -198c0 -136 -96 -221 -259 -221c-21 0 -47 2 -75 5v-197l17 -14l71 -5v-41h-252zM197 305c31 -3 53 -5 66 -5c113 0 175 59 175 169c0 107 -61 156 -189 156c-16 0 -34 0 -52 -2v-318z" />
    <glyph glyph-name="Q" unicode="Q" horiz-adv-x="731" 
d="M414 -11c3 -79 50 -119 142 -119c27 0 58 3 94 11v-41c-52 -11 -99 -16 -141 -16c-127 0 -190 53 -190 165c-171 26 -280 160 -280 348c0 109 37 200 105 265c60 57 136 87 222 87c87 0 164 -30 223 -87c68 -65 104 -156 104 -265c0 -187 -107 -320 -279 -348zM366 39
c132 0 221 113 221 298c0 186 -89 298 -221 298s-221 -110 -221 -298c0 -185 90 -298 221 -298z" />
    <glyph glyph-name="R" unicode="R" horiz-adv-x="646" 
d="M33 671h255c162 0 241 -57 241 -180c0 -86 -54 -142 -162 -166c49 -13 83 -34 103 -67c27 -45 29 -99 47 -148c22 -59 54 -71 130 -71h9v-38c-30 -6 -55 -9 -78 -9c-45 0 -77 8 -101 29c-48 42 -52 107 -73 171c-27 82 -66 108 -157 108c-15 0 -32 -1 -50 -2v-238l17 -14
l57 -5v-41h-238v41l57 5l17 14v551l-17 14l-57 6v40zM197 625v-279c19 -1 36 -2 52 -2c123 0 180 41 180 139c0 104 -60 142 -184 142h-48z" />
    <glyph glyph-name="S" unicode="S" horiz-adv-x="556" 
d="M60 20v176h59l12 -115l13 -17c29 -15 67 -23 112 -23c97 0 151 49 151 120c0 37 -10 62 -34 81c-38 30 -85 46 -133 67c-111 48 -169 85 -169 182c0 113 89 192 231 192c55 0 111 -9 170 -28v-155h-52l-15 95l-15 17c-25 14 -55 21 -90 21c-85 0 -136 -48 -136 -121
c0 -67 48 -92 140 -131c52 -22 105 -38 151 -82c29 -28 44 -66 44 -110c0 -118 -99 -201 -259 -201c-72 0 -133 12 -180 32z" />
    <glyph glyph-name="T" unicode="T" horiz-adv-x="597" 
d="M16 671h565v-154h-55l-14 93l-14 15h-153v-565l17 -14l67 -5v-41h-261v41l67 5l17 14v565h-153l-14 -15l-14 -93h-55v154z" />
    <glyph glyph-name="U" unicode="U" horiz-adv-x="694" 
d="M25 671h245v-40l-62 -6l-17 -14v-362c0 -136 51 -199 178 -199s178 63 178 199v355l-19 18l-60 9v40h211v-40l-60 -9l-18 -18v-364c0 -73 -5 -129 -44 -176c-38 -46 -111 -76 -207 -76s-169 30 -207 76s-44 102 -44 176v371l-17 14l-57 6v40z" />
    <glyph glyph-name="V" unicode="V" horiz-adv-x="618" 
d="M-23 671h233v-40l-58 -6l-11 -14l188 -504l181 504l-10 14l-62 6v40h199v-40l-62 -12l-230 -624h-69l-235 624l-64 12v40z" />
    <glyph glyph-name="W" unicode="W" horiz-adv-x="928" 
d="M231 0l-168 617l-63 14v40h224v-40l-63 -8l-8 -14l129 -462l161 524h70l164 -535l121 469l-11 14l-67 12v40h207v-40l-67 -14l-159 -617h-68l-169 547l-166 -547h-67z" />
    <glyph glyph-name="X" unicode="X" horiz-adv-x="600" 
d="M11 671h241v-40l-60 -6l-8 -12l131 -206l142 202l-9 13l-58 9v40h204v-40l-64 -10l-183 -261l194 -307l68 -12v-41h-253v41l67 7l7 14l-141 227l-158 -224l6 -18l67 -6v-41h-213v41l66 13l201 281l-181 283l-66 13v40z" />
    <glyph glyph-name="Y" unicode="Y" horiz-adv-x="586" 
d="M-13 671h232v-40l-57 -6l-10 -11l153 -275l168 267l-9 14l-61 11v40h204v-40l-61 -13l-208 -333v-225l16 -14l68 -5v-41h-259v41l68 5l16 14v212l-199 349l-61 10v40z" />
    <glyph glyph-name="Z" unicode="Z" horiz-adv-x="586" 
d="M67 671h467v-42l-380 -580h302l11 13l18 119h54v-181h-494v41l379 582h-267l-19 -13l-16 -94h-55v155z" />
    <glyph glyph-name="bracketleft" unicode="[" horiz-adv-x="421" 
d="M139 708h237v-43h-158v-755h158v-42h-237v840z" />
    <glyph glyph-name="backslash" unicode="\" horiz-adv-x="481" 
d="M13 671h61l428 -764h-61z" />
    <glyph glyph-name="bracketright" unicode="]" horiz-adv-x="421" 
d="M46 708h236v-841h-236v43h158v755h-158v43z" />
    <glyph glyph-name="asciicircum" unicode="^" horiz-adv-x="1000" 
d="M456 714h87l254 -276h-45l-253 213l-254 -213h-44z" />
    <glyph glyph-name="underscore" unicode="_" 
d="M0 -178h500v-58h-500v58z" />
    <glyph glyph-name="quoteleft" unicode="&#x2018;" horiz-adv-x="201" 
d="M131 713h43c-53 -59 -80 -108 -80 -154c0 -8 0 -15 2 -23h64c9 -13 13 -24 13 -35c0 -34 -24 -59 -60 -59c-47 0 -78 36 -78 92c0 57 32 118 96 179z" />
    <glyph glyph-name="a" unicode="a" horiz-adv-x="507" 
d="M334 58c-63 -43 -115 -65 -164 -65c-79 0 -128 53 -128 128c0 103 92 134 292 182v32c0 79 -20 112 -92 112c-24 0 -49 -5 -76 -16v-84h-69c-23 0 -31 7 -31 31c0 61 76 113 202 113c105 0 150 -43 150 -144v-290l17 -16l53 -5v-36h-141zM334 92v176
c-139 -38 -204 -67 -204 -136c0 -52 29 -85 80 -85c33 0 74 16 124 45z" />
    <glyph glyph-name="b" unicode="b" horiz-adv-x="539" 
d="M131 736h38v-280c48 23 93 35 137 35c119 0 198 -92 198 -235c0 -164 -101 -256 -290 -256h-129v669h-77v31zM169 46c18 -2 34 -3 50 -3c134 0 195 63 195 201c0 125 -57 194 -157 194c-25 0 -54 -6 -88 -16v-376z" />
    <glyph glyph-name="c" unicode="c" horiz-adv-x="446" 
d="M425 42c-55 -32 -109 -49 -163 -49c-136 0 -225 100 -225 248c0 149 97 250 237 250c96 0 150 -39 150 -97c0 -31 -23 -53 -53 -53c-18 0 -33 4 -48 14v82c-15 9 -31 14 -48 14c-86 0 -147 -78 -147 -203c0 -123 66 -196 170 -196c43 0 84 14 127 42v-52z" />
    <glyph glyph-name="d" unicode="d" horiz-adv-x="565" 
d="M383 669h-77v31l122 36h38v-679l17 -16l48 -5v-36h-148v52c-51 -41 -99 -61 -154 -61c-109 0 -193 94 -193 234c0 160 107 267 259 267c28 0 57 -4 88 -11v188zM383 89v343c-34 10 -63 16 -88 16c-101 0 -171 -81 -171 -206c0 -117 60 -188 150 -188c35 0 71 12 109 35z
" />
    <glyph glyph-name="e" unicode="e" horiz-adv-x="491" 
d="M448 106v-55c-60 -40 -125 -60 -188 -60c-132 0 -223 99 -223 246c0 150 97 254 231 254c110 0 180 -74 180 -196c0 -11 0 -21 -1 -32h-324v-11c0 -128 67 -204 168 -204c50 0 99 20 157 58zM359 305c0 6 1 12 1 17c0 80 -39 124 -103 124c-68 0 -123 -56 -129 -141h231z
" />
    <glyph glyph-name="f" unicode="f" horiz-adv-x="321" 
d="M29 0v36l53 5l18 16v364h-64v32l64 15v11c0 166 85 265 203 265c46 0 78 -25 78 -57c0 -25 -15 -43 -41 -50l-91 60c-43 -20 -65 -71 -65 -156v-73h139v-47h-140v-364l17 -16l62 -5v-36h-233z" />
    <glyph glyph-name="g" unicode="g" horiz-adv-x="523" 
d="M369 463h143v-47h-110c19 -28 28 -58 28 -93c0 -89 -74 -156 -191 -156h-17c-7 -14 -11 -29 -11 -47c0 -7 1 -14 2 -22l96 -15c118 -18 170 -49 170 -123c0 -38 -21 -81 -60 -112c-52 -43 -122 -66 -198 -66c-115 0 -181 50 -181 129c0 63 40 112 109 124
c-7 14 -11 29 -11 45c0 26 16 57 48 95c-77 18 -124 76 -124 151c0 97 76 165 194 165c39 0 75 -9 113 -28zM246 452c-58 0 -98 -46 -98 -123c0 -75 40 -123 98 -123s98 48 98 123c0 76 -40 123 -98 123zM206 30c-55 -17 -86 -55 -86 -99c0 -58 53 -103 136 -103
c89 0 149 50 149 106c0 54 -32 65 -102 78z" />
    <glyph glyph-name="h" unicode="h" horiz-adv-x="564" 
d="M141 736h38v-305c67 37 119 60 162 60c87 0 135 -52 135 -152v-282l17 -16l53 -5v-36h-218v36l47 5l17 16v265c0 73 -27 103 -101 103c-32 0 -70 -12 -112 -33v-335l18 -16l47 -5v-36h-219v36l54 5l17 16v612h-77v31z" />
    <glyph glyph-name="i" unicode="i" horiz-adv-x="280" 
d="M154 708c32 0 58 -26 58 -58s-26 -57 -58 -57s-58 25 -58 57s26 58 58 58zM150 486h39v-429l17 -16l54 -5v-36h-225v36l53 5l17 16v362h-70v31z" />
    <glyph glyph-name="j" unicode="j" horiz-adv-x="266" 
d="M109 419h-71v31l116 36h38v-402c0 -103 -2 -177 -57 -237c-39 -42 -90 -65 -144 -65c-44 0 -69 22 -69 54c0 23 12 41 37 52l97 -59c37 12 53 63 53 155v435zM88 650c0 32 26 58 58 58s58 -26 58 -58s-26 -57 -58 -57s-58 25 -58 57z" />
    <glyph glyph-name="k" unicode="k" horiz-adv-x="517" 
d="M25 0v36l54 5l17 16v612h-77v31l122 36h38v-481h19l153 171l-7 14l-45 4v37h190v-37l-64 -8l-137 -145l176 -248l64 -7v-36h-156v36l-135 191h-58v-170l18 -16l47 -5v-36h-219z" />
    <glyph glyph-name="l" unicode="l" horiz-adv-x="282" 
d="M28 0v36l59 5l17 16v612h-77v31l122 36h38v-679l18 -16l57 -5v-36h-234z" />
    <glyph glyph-name="m" unicode="m" horiz-adv-x="843" 
d="M454 424c75 44 132 67 172 67c79 0 129 -53 129 -152v-282l17 -16l53 -5v-36h-218v36l47 5l18 16v265c0 70 -28 103 -90 103c-32 0 -69 -11 -113 -33v-335l18 -16l47 -5v-36h-213v36l48 5l17 16v265c0 70 -28 103 -88 103c-33 0 -71 -11 -114 -33v-335l17 -16l48 -5v-36
h-219v36l54 5l17 16v362h-71v31l116 36h38v-55c66 39 118 60 160 60c49 0 87 -23 110 -67z" />
    <glyph glyph-name="n" unicode="n" horiz-adv-x="568" 
d="M30 0v36l54 5l17 16v362h-71v31l116 36h38v-55c67 37 118 60 161 60c87 0 135 -52 135 -152v-282l17 -16l54 -5v-36h-219v36l48 5l17 16v265c0 73 -27 103 -101 103c-32 0 -70 -12 -112 -33v-335l17 -16l48 -5v-36h-219z" />
    <glyph glyph-name="o" unicode="o" horiz-adv-x="539" 
d="M269 491c135 0 233 -102 233 -250s-99 -250 -233 -250s-232 102 -232 250c0 149 97 250 232 250zM269 447c-81 0 -138 -76 -138 -206c0 -129 58 -207 138 -207c81 0 139 77 139 207c0 129 -58 206 -139 206z" />
    <glyph glyph-name="p" unicode="p" horiz-adv-x="551" 
d="M23 -218v36l54 5l16 16v580h-70v31l116 36h38v-55c52 40 99 60 147 60c110 0 192 -93 192 -233c0 -158 -97 -261 -246 -261c-26 0 -56 3 -93 9v-167l17 -16l64 -5v-36h-235zM177 58c33 -11 61 -16 85 -16c97 0 166 79 166 202c0 115 -59 184 -146 184
c-33 0 -67 -11 -105 -34v-336z" />
    <glyph glyph-name="q" unicode="q" horiz-adv-x="531" 
d="M459 475c-2 -42 -3 -66 -3 -73v-563l17 -17l53 -4v-36h-234v36l63 4l17 17v194c-51 -24 -96 -36 -134 -36c-121 0 -201 91 -201 227c0 167 105 268 279 268c43 0 91 -6 143 -17zM372 438c-30 8 -55 11 -76 11c-103 0 -169 -76 -169 -206c0 -124 58 -193 152 -193
c23 0 54 5 93 15v373z" />
    <glyph glyph-name="r" unicode="r" horiz-adv-x="382" 
d="M30 0v36l53 5l17 16v362h-70v31l116 36h38v-94c35 36 71 68 107 97c8 2 17 2 25 2c20 0 39 -4 60 -13v-86h-32c-14 17 -30 24 -51 24c-33 0 -68 -25 -109 -73v-286l17 -16l70 -5v-36h-241z" />
    <glyph glyph-name="s" unicode="s" horiz-adv-x="400" 
d="M344 469v-113h-49l-8 71c-26 14 -50 21 -74 21c-53 0 -83 -27 -83 -72c0 -43 29 -64 85 -91c36 -17 74 -31 107 -58c24 -19 37 -49 37 -86c0 -93 -69 -150 -187 -150c-50 0 -94 8 -130 21v130h48l12 -85c28 -16 57 -23 89 -23c53 0 90 33 90 80c0 52 -36 70 -102 100
c-85 38 -129 70 -129 137c0 88 63 140 177 140c44 0 83 -7 117 -22z" />
    <glyph glyph-name="t" unicode="t" horiz-adv-x="334" 
d="M88 421h-63v31l66 29l43 93h37v-106h152v-47h-152v-264c0 -76 13 -109 83 -109c23 0 46 3 69 8v-37c-47 -15 -92 -22 -131 -22c-83 0 -104 30 -104 101v323z" />
    <glyph glyph-name="u" unicode="u" horiz-adv-x="569" 
d="M142 491h38v-331c0 -72 30 -106 97 -106c37 0 75 10 116 30v339h-71v31l116 37h38v-434l18 -16l47 -5v-36h-148v56c-60 -43 -112 -66 -162 -66c-86 0 -134 53 -134 153v280h-71v31z" />
    <glyph glyph-name="v" unicode="v" horiz-adv-x="494" 
d="M-5 481h217v-37l-53 -4l-12 -16l117 -327l128 327l-8 16l-54 4v37h177v-37l-59 -8l-175 -436h-56l-161 438l-61 6v37z" />
    <glyph glyph-name="w" unicode="w" horiz-adv-x="771" 
d="M-2 481h217v-37l-53 -4l-12 -16l91 -325l134 382h61l118 -382l102 325l-8 16l-54 4v37h177v-37l-56 -8l-143 -436h-62l-121 379l-135 -379h-62l-133 438l-61 6v37z" />
    <glyph glyph-name="x" unicode="x" horiz-adv-x="503" 
d="M18 481h215v-37l-46 -6l-5 -10l84 -131l91 128l-8 13l-48 6v37h180v-37l-56 -10l-132 -175l147 -214l60 -8v-37h-213v37l42 7l5 8l-93 149l-102 -145l5 -12l57 -7v-37h-189v37l57 8l144 193l-134 195l-61 11v37z" />
    <glyph glyph-name="y" unicode="y" horiz-adv-x="495" 
d="M-1 481h217v-37l-53 -4l-12 -16l120 -311l125 311l-8 16l-54 4v37h178v-37l-58 -8l-200 -486c-47 -113 -95 -168 -160 -168c-42 0 -69 23 -69 56c0 20 9 38 26 54l96 -38c27 29 56 79 81 150l-168 434l-61 6v37z" />
    <glyph glyph-name="z" unicode="z" horiz-adv-x="468" 
d="M45 0v50l267 385h-185l-14 -16l-11 -77h-47v139h361v-38l-277 -397h215l15 16l11 85h51v-147h-386z" />
    <glyph glyph-name="braceleft" unicode="{" horiz-adv-x="486" 
d="M418 703v-37c-100 -3 -128 -32 -128 -120v-81c0 -105 -30 -154 -130 -175c93 -21 130 -68 130 -165v-87c0 -100 15 -132 128 -133v-39h-25c-140 0 -182 42 -183 183v85c0 99 -30 135 -122 135c-7 0 -15 -1 -23 -1v44c9 -1 18 -1 26 -1c90 0 119 36 119 129v102
c0 114 58 161 195 161h13z" />
    <glyph glyph-name="bar" unicode="|" 
d="M219 764h62v-1000h-62v1000z" />
    <glyph glyph-name="braceright" unicode="}" horiz-adv-x="486" 
d="M64 703h13c137 0 195 -47 195 -161v-102c0 -93 29 -129 119 -129c8 0 17 0 26 1v-44c-8 0 -16 1 -23 1c-91 0 -122 -35 -122 -130v-90c0 -138 -41 -184 -180 -184c-9 0 -18 1 -28 1v39c113 1 127 33 128 133v83c0 100 36 148 130 169c-100 21 -130 70 -130 175v81
c0 88 -28 117 -128 120v37z" />
    <glyph glyph-name="asciitilde" unicode="~" horiz-adv-x="833" 
d="M747 370v-64c-66 -47 -129 -70 -189 -70c-29 0 -60 6 -93 17c-69 23 -128 50 -190 50c-59 0 -117 -28 -188 -78v65c68 47 131 71 189 71c52 0 97 -16 142 -32c48 -17 91 -35 141 -35c60 0 118 27 188 76z" />
    <glyph glyph-name="exclamdown" unicode="&#xa1;" horiz-adv-x="338" 
d="M169 491c31 0 57 -25 57 -57s-26 -57 -57 -57c-32 0 -57 25 -57 57c0 31 25 57 57 57zM145 311h48l28 -382c2 -22 3 -41 3 -58c0 -47 -19 -72 -55 -72s-55 25 -55 72c0 17 1 36 3 58z" />
    <glyph glyph-name="cent" unicode="&#xa2;" horiz-adv-x="556" 
d="M273 601h46v-98c6 0 12 1 18 1c39 0 81 -8 127 -24v-147h-45l-16 104c-24 15 -49 20 -77 20h-7v-411c31 0 59 6 84 19l14 109h47v-152c-39 -15 -83 -21 -133 -21h-12v-99h-46v101c-129 18 -209 112 -209 243c0 136 79 233 209 254v101zM273 454
c-78 -22 -123 -96 -123 -207c0 -103 48 -178 123 -199v406z" />
    <glyph glyph-name="sterling" unicode="&#xa3;" horiz-adv-x="556" 
d="M417 531v94c-18 6 -35 9 -52 9c-102 0 -135 -71 -135 -231c0 -16 0 -33 1 -51h188v-47h-188v-14c0 -102 -33 -176 -100 -217l2 -3c34 3 56 5 68 5h305v-76h-469v57c93 26 111 85 111 213v35h-72v47h71c-1 21 -2 42 -2 61c0 78 10 137 39 181c35 53 100 89 167 89
c95 0 157 -47 157 -99c0 -33 -24 -57 -59 -57c-9 0 -19 1 -32 4z" />
    <glyph glyph-name="fraction" unicode="&#x2044;" horiz-adv-x="185" 
d="M276 671h61l-428 -671h-61z" />
    <glyph glyph-name="yen" unicode="&#xa5;" horiz-adv-x="556" 
d="M-6 671h212v-40l-52 -6l-9 -11l140 -274l153 266l-9 14l-55 11v40h185v-40l-55 -13l-110 -192h144v-42h-171l-59 -104h230v-42h-226v-178l17 -14l72 -5v-41h-258v41l69 5l19 14v178h-217v42h216l-53 104h-163v42h136l-99 195l-57 10v40z" />
    <glyph glyph-name="florin" unicode="&#x192;" horiz-adv-x="556" 
d="M462 561l-85 72c-66 -24 -77 -81 -77 -185v-80h162v-49h-162c1 -34 1 -66 1 -96c0 -119 -8 -208 -46 -275c-41 -72 -114 -117 -183 -117c-41 0 -66 23 -66 57c0 24 12 45 36 60l102 -57c61 35 75 100 75 209v219h-115v49h115v75c0 78 13 129 63 179c38 38 92 61 139 61
c52 0 86 -26 86 -61c0 -26 -15 -45 -45 -61z" />
    <glyph glyph-name="section" unicode="&#xa7;" 
d="M406 695v-129h-45l-10 80c-36 20 -67 30 -96 30c-59 0 -101 -37 -101 -85c0 -58 57 -75 147 -119c91 -45 136 -97 136 -166c0 -68 -45 -131 -122 -162c71 -32 104 -74 104 -133c0 -87 -72 -151 -188 -151c-42 0 -89 10 -142 31l-2 129h48l14 -90c33 -18 65 -26 96 -26
c62 0 103 36 103 83c0 66 -65 89 -169 138c-76 36 -116 93 -116 162c0 72 39 122 118 156c-70 34 -101 72 -101 134c0 86 69 141 192 141c44 0 89 -8 134 -23zM223 424c-57 -25 -87 -65 -87 -115c0 -67 46 -104 143 -147c56 37 84 76 84 122c0 60 -46 105 -140 140z" />
    <glyph glyph-name="currency" unicode="&#xa4;" horiz-adv-x="606" 
d="M77 693l101 -101c38 29 78 44 125 44s89 -15 127 -44l100 101l35 -36l-100 -100c28 -37 42 -79 42 -125s-14 -88 -42 -125l100 -100l-35 -36l-100 101c-37 -29 -79 -43 -127 -43s-88 14 -125 43l-101 -101l-35 36l101 100c-28 37 -43 79 -43 125s15 88 43 125l-101 100z
M304 586c-85 0 -153 -69 -153 -153c0 -85 68 -154 153 -154s153 70 153 154s-68 153 -153 153z" />
    <glyph glyph-name="quotesingle" unicode="'" horiz-adv-x="170" 
d="M93 422h-16l-32 223c-1 7 -1 13 -1 19c0 33 15 50 41 50s42 -17 42 -49c0 -5 -1 -12 -2 -20z" />
    <glyph glyph-name="quotedblleft" unicode="&#x201c;" horiz-adv-x="403" 
d="M131 713h43c-53 -59 -80 -108 -80 -154c0 -8 0 -15 2 -23h64c9 -13 13 -24 13 -35c0 -34 -24 -59 -60 -59c-47 0 -78 36 -78 92c0 57 32 118 96 179zM332 713h43c-53 -59 -80 -108 -80 -154c0 -8 0 -15 2 -23h65c9 -13 13 -24 13 -35c0 -34 -24 -59 -60 -59
c-47 0 -79 36 -79 92c0 57 32 118 96 179z" />
    <glyph glyph-name="guillemotleft" unicode="&#xab;" horiz-adv-x="442" 
d="M203 413v-66l-117 -107l117 -108v-65l-164 133v80zM400 413v-66l-117 -107l117 -108v-65l-163 133v80z" />
    <glyph glyph-name="guilsinglleft" unicode="&#x2039;" horiz-adv-x="245" 
d="M203 413v-66l-117 -107l117 -108v-65l-164 133v80z" />
    <glyph glyph-name="guilsinglright" unicode="&#x203a;" horiz-adv-x="245" 
d="M46 413l163 -133v-80l-163 -133v65l117 108l-117 107v66z" />
    <glyph glyph-name="fi" unicode="&#xfb01;" horiz-adv-x="574" 
d="M319 637l-77 56c-39 -22 -58 -72 -58 -152v-73h206l58 27h33v-438l16 -16l47 -5v-36h-218v36l54 5l17 16v364h-214v-364l17 -16l51 -5v-36h-222v36l53 5l18 16v364h-64v31l64 16v13c0 163 89 263 195 263c42 0 67 -22 67 -53c0 -25 -14 -42 -43 -54zM399 645
c0 29 23 51 52 51s52 -22 52 -51s-23 -52 -52 -52s-52 23 -52 52z" />
    <glyph glyph-name="fl" unicode="&#xfb02;" horiz-adv-x="579" 
d="M464 743h22v-686l17 -16l57 -5v-36h-227v36l53 5l17 16v610h-45l-35 -26l-74 56c-43 -20 -65 -71 -65 -156v-73h139v-47h-140v-364l17 -16l51 -5v-36h-222v36l53 5l18 16v364h-64v31l64 16v13c0 163 89 263 195 263c39 0 63 -19 67 -49z" />
    <glyph glyph-name="endash" unicode="&#x2013;" 
d="M0 271h500v-61h-500v61z" />
    <glyph glyph-name="dagger" unicode="&#x2020;" 
d="M249 718l45 -76l-37 -140h-14l-38 140zM88 528l144 -40v-16l-144 -35l-71 46zM410 528l73 -45l-73 -46l-141 35v16zM243 460h14l42 -166l-42 -423h-14l-41 423z" />
    <glyph glyph-name="daggerdbl" unicode="&#x2021;" 
d="M249 718l45 -76l-37 -140h-14l-38 140zM88 528l144 -40v-16l-144 -35l-71 46zM410 528l73 -45l-73 -46l-141 35v16zM243 460h14l48 -166l-48 -167h-14l-51 167zM88 151l144 -40v-16l-144 -35l-71 46zM410 151l73 -45l-73 -46l-141 35v16zM243 84h14l37 -140l-45 -76
l-44 76z" />
    <glyph glyph-name="periodcentered" unicode="&#xb7;" horiz-adv-x="278" 
d="M139 399c35 0 63 -28 63 -64c0 -35 -28 -63 -63 -63s-64 28 -64 63c0 36 29 64 64 64z" />
    <glyph glyph-name="paragraph" unicode="&#xb6;" horiz-adv-x="484" 
d="M458 671v-36l-62 -10v-704h-49v709h-76v-349h-15c-155 0 -230 62 -230 193c0 140 75 197 236 197h196z" />
    <glyph glyph-name="bullet" unicode="&#x2022;" horiz-adv-x="590" 
d="M150 372c0 80 65 144 145 144c79 0 144 -64 144 -144c0 -79 -65 -145 -145 -145s-144 65 -144 145z" />
    <glyph glyph-name="quotesinglbase" unicode="&#x201a;" horiz-adv-x="201" 
d="M74 -164h-43c53 59 80 107 80 153c0 8 0 15 -2 23h-64c-9 13 -13 25 -13 36c0 34 24 59 60 59c47 0 78 -36 78 -92c0 -57 -32 -118 -96 -179z" />
    <glyph glyph-name="quotedblbase" unicode="&#x201e;" horiz-adv-x="403" 
d="M74 -164h-43c53 59 80 107 80 153c0 8 0 15 -2 23h-64c-9 13 -13 25 -13 36c0 34 24 59 60 59c47 0 78 -36 78 -92c0 -57 -32 -118 -96 -179zM276 -164h-43c53 59 80 107 80 153c0 8 0 15 -2 23h-65c-9 13 -13 25 -13 36c0 34 24 59 60 59c47 0 78 -36 78 -92
c0 -57 -31 -118 -95 -179z" />
    <glyph glyph-name="quotedblright" unicode="&#x201d;" horiz-adv-x="403" 
d="M74 442h-43c53 59 80 108 80 154c0 8 0 15 -2 23h-65c-9 13 -13 24 -13 35c0 34 24 59 60 59c47 0 79 -36 79 -92c0 -58 -32 -118 -96 -179zM275 442h-43c53 59 80 108 80 154c0 8 0 15 -2 23h-64c-9 13 -13 24 -13 35c0 34 23 59 59 59c47 0 79 -36 79 -92
c0 -57 -32 -118 -96 -179z" />
    <glyph glyph-name="guillemotright" unicode="&#xbb;" horiz-adv-x="442" 
d="M46 413l163 -133v-80l-163 -133v65l117 108l-117 107v66zM243 413l164 -133v-80l-164 -133v65l117 108l-117 107v66z" />
    <glyph glyph-name="ellipsis" unicode="&#x2026;" horiz-adv-x="1000" 
d="M833 118c35 0 64 -28 64 -64c0 -35 -29 -63 -64 -63s-63 28 -63 63c0 36 28 64 63 64zM166 118c35 0 64 -29 64 -65c0 -35 -29 -62 -64 -62s-63 27 -63 62c0 36 28 63 63 65zM500 118c35 0 63 -28 63 -64c0 -35 -28 -63 -63 -63s-63 28 -63 63c0 36 28 64 63 64z" />
    <glyph glyph-name="perthousand" unicode="&#x2030;" horiz-adv-x="1225" 
d="M181 683c91 0 150 -77 150 -209c0 -133 -59 -210 -150 -210s-150 76 -150 210c0 133 60 209 150 209zM608 671h61l-428 -671h-60zM179 647c-50 0 -78 -59 -78 -173c0 -115 27 -174 78 -174c52 0 80 58 80 174c0 115 -29 173 -80 173zM671 407c91 0 150 -77 150 -209
c0 -133 -59 -210 -150 -210s-150 76 -150 210c0 133 60 209 150 209zM1043 407c91 0 150 -77 150 -209c0 -133 -59 -210 -150 -210s-150 76 -150 210c0 133 60 209 150 209zM669 372c-50 0 -78 -60 -78 -174c0 -115 27 -174 78 -174c52 0 80 58 80 174
c0 115 -29 174 -80 174zM1041 372c-50 0 -78 -60 -78 -174c0 -115 27 -174 78 -174c52 0 80 58 80 174c0 115 -29 174 -80 174z" />
    <glyph glyph-name="questiondown" unicode="&#xbf;" horiz-adv-x="486" 
d="M269 491c31 0 57 -25 57 -57s-26 -57 -57 -57c-32 0 -57 25 -57 57c0 31 25 57 57 57zM243 311h52v-146c-96 -36 -144 -96 -144 -179c0 -89 50 -141 139 -141h5l41 99c6 1 12 1 18 1c39 0 61 -20 61 -53c0 -50 -58 -93 -147 -93c-128 0 -208 72 -208 180
c0 94 60 162 183 215v117z" />
    <glyph glyph-name="grave" unicode="`" 
d="M104 736h99l97 -190h-50z" />
    <glyph glyph-name="acute" unicode="&#xb4;" 
d="M309 736h99l-146 -190h-50z" />
    <glyph glyph-name="circumflex" unicode="&#x2c6;" 
d="M218 736h64l110 -190h-54l-88 141l-87 -141h-55z" />
    <glyph glyph-name="tilde" unicode="&#x2dc;" 
d="M361 708h41c0 -5 1 -10 1 -14c0 -66 -37 -106 -84 -106c-61 0 -114 50 -144 50c-21 0 -36 -19 -36 -53c0 -4 1 -8 1 -12h-43v10c0 73 31 110 85 110c55 0 105 -52 140 -52c26 0 39 20 39 62v5z" />
    <glyph glyph-name="macron" unicode="&#xaf;" 
d="M102 668h301v-60h-301v60z" />
    <glyph glyph-name="breve" unicode="&#x2d8;" 
d="M109 709h39v-8c0 -54 30 -71 103 -71c72 0 101 17 101 71v8h40v-11c0 -96 -41 -131 -141 -131c-102 0 -142 34 -142 131v11z" />
    <glyph glyph-name="dotaccent" unicode="&#x2d9;" 
d="M250 696c30 0 54 -23 54 -54c0 -29 -24 -52 -54 -52s-53 23 -53 52c0 30 23 54 53 54z" />
    <glyph glyph-name="dieresis" unicode="&#xa8;" 
d="M157 691c28 0 50 -23 50 -51s-22 -50 -50 -50s-51 22 -51 50c0 29 22 51 51 51zM343 691c28 0 50 -23 50 -51s-22 -50 -50 -50s-51 22 -51 50c0 29 22 51 51 51z" />
    <glyph glyph-name="ring" unicode="&#x2da;" 
d="M250 781c66 0 118 -51 118 -117s-52 -118 -118 -118s-117 52 -117 118s51 117 117 117zM250 737c-40 0 -72 -33 -72 -74c0 -40 32 -72 72 -72c41 0 74 32 74 72c0 41 -33 74 -74 74z" />
    <glyph glyph-name="cedilla" unicode="&#xb8;" 
d="M221 0h37v-61c7 1 13 1 19 1c48 0 76 -27 76 -72c0 -55 -44 -91 -118 -91c-20 0 -43 3 -69 10v36c18 -5 37 -8 59 -8c42 0 67 17 67 43c0 23 -18 37 -50 37c-7 0 -14 -1 -21 -2v107z" />
    <glyph glyph-name="hungarumlaut" unicode="&#x2dd;" 
d="M227 736h88l-141 -190h-41zM375 736h98l-189 -190h-47z" />
    <glyph glyph-name="ogonek" unicode="&#x2db;" 
d="M250 0h44c-35 -30 -54 -69 -54 -106s20 -57 57 -57c9 0 20 2 33 4v-50c-18 -5 -35 -8 -51 -8c-63 0 -97 31 -97 86c0 46 24 97 68 131z" />
    <glyph glyph-name="caron" unicode="&#x2c7;" 
d="M108 736h55l87 -141l88 141h54l-110 -190h-64z" />
    <glyph glyph-name="emdash" unicode="&#x2014;" horiz-adv-x="1000" 
d="M0 210v61h1000v-61h-1000z" />
    <glyph glyph-name="AE" unicode="&#xc6;" horiz-adv-x="866" 
d="M283 671h518v-146h-55l-14 85l-14 15h-206v-253h138l15 14l10 73h46v-220h-46l-10 72l-15 15h-138v-280h242l15 16l16 101h52v-163h-485v41l57 5l17 14v191h-233l-120 -191l5 -14l64 -5v-41h-198v41l57 9l349 561l-9 14l-58 6v40zM426 627l-207 -329h207v329z" />
    <glyph glyph-name="ordfeminine" unicode="&#xaa;" horiz-adv-x="380" 
d="M318 584v-202l10 -9l43 -4v-32h-115l-8 38c-45 -28 -84 -43 -120 -43c-62 0 -101 40 -101 90c0 79 68 100 219 134v19c0 54 -13 75 -64 75c-16 0 -34 -3 -53 -10v-60h-56c-20 0 -28 6 -28 25c0 44 58 83 157 83c80 0 116 -32 116 -104zM246 523
c-99 -26 -144 -44 -144 -92c0 -32 20 -53 53 -53c27 0 56 10 91 29v116z" />
    <glyph glyph-name="Lslash" unicode="&#x141;" horiz-adv-x="520" 
d="M27 671h244v-40l-57 -6l-17 -14v-204l94 62l26 -38l-120 -81v-304h226l14 16l17 120h52v-182h-479v41l63 5l17 14v231l-73 -50l-24 40l97 65v265l-17 14l-63 6v40z" />
    <glyph glyph-name="Oslash" unicode="&#xd8;" horiz-adv-x="731" 
d="M578 748l41 -24l-61 -100c85 -67 131 -161 131 -288c0 -109 -37 -201 -104 -266c-58 -56 -134 -86 -219 -86c-58 0 -112 14 -166 44l-62 -105l-39 27l63 106c-80 69 -119 162 -119 280c0 109 36 200 103 265c58 57 135 87 220 87c52 0 102 -12 154 -36zM486 595
c-35 27 -74 39 -120 39c-132 0 -223 -111 -223 -298c0 -86 18 -156 58 -214zM522 562l-287 -478c39 -31 83 -46 131 -46c133 0 223 112 223 298c0 90 -21 164 -67 226z" />
    <glyph glyph-name="OE" unicode="&#x152;" horiz-adv-x="993" 
d="M350 627c-120 0 -203 -107 -203 -292c0 -182 83 -291 203 -291s204 109 204 291s-84 292 -204 292zM553 549v122h376v-146h-56l-14 85l-14 15h-208v-253h140l15 14l10 73h47v-220h-47l-10 72l-15 15h-140v-280h244l15 16l16 101h53v-163h-412v123
c-47 -86 -120 -131 -213 -131c-78 0 -148 29 -202 84c-63 64 -95 153 -95 260s33 195 96 260c52 54 124 83 201 83c104 0 172 -41 213 -130z" />
    <glyph glyph-name="ordmasculine" unicode="&#xba;" horiz-adv-x="404" 
d="M202 688c104 0 179 -74 179 -179s-75 -178 -179 -178s-179 73 -179 178s75 179 179 179zM202 650c-58 0 -99 -53 -99 -141c0 -87 41 -141 99 -141c59 0 99 53 99 141s-41 141 -99 141z" />
    <glyph glyph-name="ae" unicode="&#xe6;" horiz-adv-x="725" 
d="M166 347h-70c-22 0 -30 7 -30 31c0 62 74 113 194 113c64 0 104 -18 126 -60c36 40 79 60 132 60c104 0 164 -71 164 -198c0 -11 0 -23 -1 -35h-279v-139c43 -44 92 -65 150 -65c50 0 88 15 130 52v-55c-51 -40 -105 -60 -162 -60c-65 0 -128 25 -177 73
c-63 -47 -119 -71 -176 -71c-76 0 -124 51 -124 124c0 109 86 137 281 186v32c0 79 -20 112 -89 112c-24 0 -46 -5 -69 -16v-84zM324 92v176c-136 -39 -197 -66 -197 -139c0 -48 29 -82 74 -82c36 0 76 16 123 45zM402 297h190c0 8 1 16 1 23c0 83 -31 127 -90 127
c-63 0 -99 -52 -101 -150z" />
    <glyph glyph-name="dotlessi" unicode="&#x131;" horiz-adv-x="280" 
d="M150 486h39v-429l17 -16l54 -5v-36h-225v36l53 5l17 16v362h-70v31z" />
    <glyph glyph-name="lslash" unicode="&#x142;" horiz-adv-x="282" 
d="M149 736h38v-316l86 57l26 -39l-112 -75v-306l18 -16l57 -5v-36h-234v36l59 5l17 16v250l-75 -51l-24 40l99 66v307h-77v31z" />
    <glyph glyph-name="oslash" unicode="&#xf8;" horiz-adv-x="539" 
d="M423 560l34 -19l-52 -93c64 -48 97 -113 97 -207c0 -148 -99 -250 -233 -250c-41 0 -78 9 -113 28l-58 -99l-32 20l58 102c-59 50 -87 115 -87 199c0 149 97 250 232 250c37 0 70 -7 102 -22zM344 422c-22 17 -47 25 -75 25c-82 0 -140 -76 -140 -206
c0 -51 10 -96 30 -137zM371 392l-185 -323c23 -24 50 -35 83 -35c83 0 142 77 142 207c0 60 -13 109 -40 151z" />
    <glyph glyph-name="oe" unicode="&#x153;" horiz-adv-x="817" 
d="M261 447c-75 0 -130 -75 -130 -206c0 -129 55 -207 130 -207c76 0 130 76 130 207c0 130 -54 206 -130 206zM686 305v14c0 82 -33 128 -91 128c-56 0 -102 -51 -113 -142h204zM775 263h-298v-3c0 -132 64 -207 165 -207c48 0 86 19 133 53v-55c-55 -40 -108 -61 -163 -61
c-74 0 -134 33 -178 100c-49 -66 -107 -99 -174 -99c-128 0 -223 101 -223 250s95 250 223 250c77 0 140 -34 180 -98c37 64 96 98 168 98c103 0 168 -72 168 -196c0 -10 0 -21 -1 -32z" />
    <glyph glyph-name="germandbls" unicode="&#xdf;" horiz-adv-x="609" 
d="M483 466c-9 1 -17 2 -24 2c-57 0 -90 -31 -90 -78c0 -55 45 -70 116 -109c65 -36 96 -78 96 -134c0 -85 -67 -154 -167 -154c-27 0 -65 7 -115 20v132h50l10 -87c18 -13 38 -20 61 -20c53 0 86 37 86 83c0 55 -34 73 -93 106c-77 43 -123 70 -123 139
c0 63 47 118 122 135c6 27 10 50 10 70c0 74 -43 124 -104 124c-50 0 -91 -27 -119 -81c-22 -41 -25 -102 -25 -183v-373l8 -18l66 -5v-35h-229v35l58 7l11 15v392c0 179 102 292 245 292c107 0 168 -60 168 -165c0 -34 -6 -71 -18 -110z" />
    <glyph glyph-name="Aacute" unicode="&#xc1;" horiz-adv-x="639" 
d="M284 679h66l240 -626l60 -12v-41h-227v41l62 5l7 14l-72 191h-236l-71 -191l10 -14l65 -5v-41h-196v41l58 12zM300 574l-99 -277h202zM373 892h100l-141 -148h-50z" />
    <glyph glyph-name="Acircumflex" unicode="&#xc2;" horiz-adv-x="639" 
d="M284 679h66l240 -626l60 -12v-41h-227v41l62 5l7 14l-72 191h-236l-71 -191l10 -14l65 -5v-41h-196v41l58 12zM300 574l-99 -277h202zM288 891h64l110 -148h-54l-88 96l-87 -96h-55z" />
    <glyph glyph-name="Adieresis" unicode="&#xc4;" horiz-adv-x="639" 
d="M284 679h66l240 -626l60 -12v-41h-227v41l62 5l7 14l-72 191h-236l-71 -191l10 -14l65 -5v-41h-196v41l58 12zM300 574l-99 -277h202zM227 868c28 0 50 -23 50 -51s-22 -50 -50 -50s-51 22 -51 50c0 29 22 51 51 51zM413 868c28 0 50 -23 50 -51s-22 -50 -50 -50
s-51 22 -51 50c0 29 22 51 51 51z" />
    <glyph glyph-name="Agrave" unicode="&#xc0;" horiz-adv-x="639" 
d="M284 679h66l240 -626l60 -12v-41h-227v41l62 5l7 14l-72 191h-236l-71 -191l10 -14l65 -5v-41h-196v41l58 12zM300 574l-99 -277h202zM186 891h99l85 -148h-50z" />
    <glyph glyph-name="Aring" unicode="&#xc5;" horiz-adv-x="639" 
d="M306 963c66 0 118 -51 118 -117s-52 -118 -118 -118s-117 52 -117 118s51 117 117 117zM307 919c-40 0 -73 -33 -73 -74c0 -40 33 -72 73 -72c41 0 73 32 73 72c0 41 -32 74 -73 74zM284 679h66l240 -626l60 -12v-41h-227v41l62 5l7 14l-72 191h-236l-71 -191l10 -14
l65 -5v-41h-196v41l58 12zM300 574l-99 -277h202z" />
    <glyph glyph-name="Atilde" unicode="&#xc3;" horiz-adv-x="639" 
d="M284 679h66l240 -626l60 -12v-41h-227v41l62 5l7 14l-72 191h-236l-71 -191l10 -14l65 -5v-41h-196v41l58 12zM300 574l-99 -277h202zM431 878h41v-11c0 -63 -33 -102 -83 -102c-60 0 -111 49 -144 49c-20 0 -35 -19 -35 -50v-8h-43v6c0 69 32 106 83 106
c57 0 107 -51 143 -51c24 0 38 21 38 61z" />
    <glyph glyph-name="Ccedilla" unicode="&#xc7;" horiz-adv-x="632" 
d="M588 23c-66 -23 -135 -35 -202 -35c-66 0 -124 14 -170 40c-107 61 -173 177 -173 308c0 208 139 347 347 347c58 0 124 -11 198 -34v-154h-56l-15 91l-13 18c-37 17 -73 26 -112 26c-150 0 -246 -107 -246 -294c0 -182 101 -295 261 -295c28 0 57 4 87 13l16 16l24 111
h54v-158zM345 0h37v-61c7 1 13 1 19 1c48 0 76 -27 76 -72c0 -55 -44 -91 -118 -91c-20 0 -43 3 -69 10v36c18 -5 37 -8 59 -8c42 0 67 17 67 43c0 23 -18 37 -50 37c-7 0 -14 -1 -21 -2v107z" />
    <glyph glyph-name="Eacute" unicode="&#xc9;" horiz-adv-x="576" 
d="M33 0v41l57 5l17 14v551l-17 14l-57 6v40h479v-146h-56l-14 85l-14 15h-231v-253h164l14 14l10 73h47v-220h-47l-10 72l-14 15h-164v-280h268l14 16l17 101h52v-163h-515zM341 892h100l-141 -148h-50z" />
    <glyph glyph-name="Ecircumflex" unicode="&#xca;" horiz-adv-x="576" 
d="M33 0v41l57 5l17 14v551l-17 14l-57 6v40h479v-146h-56l-14 85l-14 15h-231v-253h164l14 14l10 73h47v-220h-47l-10 72l-14 15h-164v-280h268l14 16l17 101h52v-163h-515zM256 891h64l110 -148h-54l-88 96l-87 -96h-55z" />
    <glyph glyph-name="Edieresis" unicode="&#xcb;" horiz-adv-x="576" 
d="M33 0v41l57 5l17 14v551l-17 14l-57 6v40h479v-146h-56l-14 85l-14 15h-231v-253h164l14 14l10 73h47v-220h-47l-10 72l-14 15h-164v-280h268l14 16l17 101h52v-163h-515zM195 868c28 0 50 -23 50 -51s-22 -50 -50 -50s-51 22 -51 50c0 29 22 51 51 51zM381 868
c28 0 50 -23 50 -51s-22 -50 -50 -50s-51 22 -51 50c0 29 22 51 51 51z" />
    <glyph glyph-name="Egrave" unicode="&#xc8;" horiz-adv-x="576" 
d="M33 0v41l57 5l17 14v551l-17 14l-57 6v40h479v-146h-56l-14 85l-14 15h-231v-253h164l14 14l10 73h47v-220h-47l-10 72l-14 15h-164v-280h268l14 16l17 101h52v-163h-515zM154 891h99l85 -148h-50z" />
    <glyph glyph-name="Eth" unicode="&#xd0;" horiz-adv-x="693" 
d="M280 671c237 0 369 -125 369 -335c0 -119 -42 -212 -125 -274c-67 -51 -144 -62 -244 -62h-247v41l57 5l17 14v267h-92v48h92v236l-17 14l-57 6v40h247zM197 327v-281h79c183 0 272 96 272 290c0 195 -89 289 -272 289h-79v-250h166v-48h-166z" />
    <glyph glyph-name="Iacute" unicode="&#xcd;" horiz-adv-x="324" 
d="M35 0v41l64 5l17 14v551l-17 14l-64 6v40h254v-40l-64 -6l-17 -14v-551l17 -14l64 -5v-41h-254zM215 892h100l-141 -148h-50z" />
    <glyph glyph-name="Icircumflex" unicode="&#xce;" horiz-adv-x="324" 
d="M35 0v41l64 5l17 14v551l-17 14l-64 6v40h254v-40l-64 -6l-17 -14v-551l17 -14l64 -5v-41h-254zM130 891h64l110 -148h-54l-88 96l-87 -96h-55z" />
    <glyph glyph-name="Idieresis" unicode="&#xcf;" horiz-adv-x="324" 
d="M35 0v41l64 5l17 14v551l-17 14l-64 6v40h254v-40l-64 -6l-17 -14v-551l17 -14l64 -5v-41h-254zM69 868c28 0 50 -23 50 -51s-22 -50 -50 -50s-51 22 -51 50c0 29 22 51 51 51zM255 868c28 0 50 -23 50 -51s-22 -50 -50 -50s-51 22 -51 50c0 29 22 51 51 51z" />
    <glyph glyph-name="Igrave" unicode="&#xcc;" horiz-adv-x="324" 
d="M35 0v41l64 5l17 14v551l-17 14l-64 6v40h254v-40l-64 -6l-17 -14v-551l17 -14l64 -5v-41h-254zM28 891h99l85 -148h-50z" />
    <glyph glyph-name="Ntilde" unicode="&#xd1;" horiz-adv-x="713" 
d="M29 0v41l61 8l18 19v543l-18 14l-64 6v40h188v-25l341 -512v470l-18 18l-60 9v40h210v-40l-60 -9l-18 -18v-604h-66l-381 568v-500l18 -19l60 -8v-41h-211zM468 878h41v-11c0 -63 -33 -102 -83 -102c-60 0 -111 49 -144 49c-20 0 -35 -19 -35 -50v-8h-43v6
c0 69 32 106 83 106c57 0 107 -51 143 -51c24 0 38 21 38 61z" />
    <glyph glyph-name="Oacute" unicode="&#xd3;" horiz-adv-x="731" 
d="M366 688c86 0 160 -30 220 -88c67 -65 103 -155 103 -264s-36 -200 -104 -266c-59 -57 -134 -86 -219 -86s-161 29 -220 86c-68 66 -103 157 -103 266s35 199 102 264c60 58 135 88 221 88zM366 634c-130 0 -219 -110 -219 -298c0 -186 90 -299 219 -299s218 113 218 299
s-89 298 -218 298zM419 892h100l-141 -148h-50z" />
    <glyph glyph-name="Ocircumflex" unicode="&#xd4;" horiz-adv-x="731" 
d="M366 688c86 0 160 -30 220 -88c67 -65 103 -155 103 -264s-36 -200 -104 -266c-59 -57 -134 -86 -219 -86s-161 29 -220 86c-68 66 -103 157 -103 266s35 199 102 264c60 58 135 88 221 88zM366 634c-130 0 -219 -110 -219 -298c0 -186 90 -299 219 -299s218 113 218 299
s-89 298 -218 298zM334 891h64l110 -148h-54l-88 96l-87 -96h-55z" />
    <glyph glyph-name="Odieresis" unicode="&#xd6;" horiz-adv-x="731" 
d="M366 688c86 0 160 -30 220 -88c67 -65 103 -155 103 -264s-36 -200 -104 -266c-59 -57 -134 -86 -219 -86s-161 29 -220 86c-68 66 -103 157 -103 266s35 199 102 264c60 58 135 88 221 88zM366 634c-130 0 -219 -110 -219 -298c0 -186 90 -299 219 -299s218 113 218 299
s-89 298 -218 298zM273 868c28 0 50 -23 50 -51s-22 -50 -50 -50s-51 22 -51 50c0 29 22 51 51 51zM459 868c28 0 50 -23 50 -51s-22 -50 -50 -50s-51 22 -51 50c0 29 22 51 51 51z" />
    <glyph glyph-name="Ograve" unicode="&#xd2;" horiz-adv-x="731" 
d="M366 688c86 0 160 -30 220 -88c67 -65 103 -155 103 -264s-36 -200 -104 -266c-59 -57 -134 -86 -219 -86s-161 29 -220 86c-68 66 -103 157 -103 266s35 199 102 264c60 58 135 88 221 88zM366 634c-130 0 -219 -110 -219 -298c0 -186 90 -299 219 -299s218 113 218 299
s-89 298 -218 298zM232 891h99l85 -148h-50z" />
    <glyph glyph-name="Otilde" unicode="&#xd5;" horiz-adv-x="731" 
d="M366 688c86 0 160 -30 220 -88c67 -65 103 -155 103 -264s-36 -200 -104 -266c-59 -57 -134 -86 -219 -86s-161 29 -220 86c-68 66 -103 157 -103 266s35 199 102 264c60 58 135 88 221 88zM366 634c-130 0 -219 -110 -219 -298c0 -186 90 -299 219 -299s218 113 218 299
s-89 298 -218 298zM477 878h41v-11c0 -63 -33 -102 -83 -102c-60 0 -111 49 -144 49c-20 0 -35 -19 -35 -50v-8h-43v6c0 69 32 106 83 106c57 0 107 -51 143 -51c24 0 38 21 38 61z" />
    <glyph glyph-name="Scaron" unicode="&#x160;" horiz-adv-x="556" 
d="M60 20v176h59l12 -115l13 -17c29 -15 67 -23 112 -23c97 0 151 49 151 120c0 37 -10 62 -34 81c-38 30 -85 46 -133 67c-111 48 -169 85 -169 182c0 113 89 192 231 192c55 0 111 -9 170 -28v-155h-52l-15 95l-15 17c-25 14 -55 21 -90 21c-85 0 -136 -48 -136 -121
c0 -67 48 -92 140 -131c52 -22 105 -38 151 -82c29 -28 44 -66 44 -110c0 -118 -99 -201 -259 -201c-72 0 -133 12 -180 32zM328 743h-64l-110 148h54l88 -95l87 95h55z" />
    <glyph glyph-name="Thorn" unicode="&#xde;" horiz-adv-x="558" 
d="M35 671h243v-40l-62 -6l-16 -14v-66h55c189 0 278 -53 278 -194c0 -134 -96 -217 -259 -217c-18 0 -42 2 -74 5v-79l16 -14l62 -5v-41h-243v41l58 5l16 14v551l-16 14l-58 6v40zM200 186c30 -3 52 -4 66 -4c114 0 175 57 175 165c0 105 -61 153 -188 153
c-17 0 -34 0 -53 -2v-312z" />
    <glyph glyph-name="Uacute" unicode="&#xda;" horiz-adv-x="694" 
d="M25 671h245v-40l-62 -6l-17 -14v-362c0 -136 51 -199 178 -199s178 63 178 199v355l-19 18l-60 9v40h211v-40l-60 -9l-18 -18v-364c0 -73 -5 -129 -44 -176c-38 -46 -111 -76 -207 -76s-169 30 -207 76s-44 102 -44 176v371l-17 14l-57 6v40zM430 892h100l-141 -148h-50z
" />
    <glyph glyph-name="Ucircumflex" unicode="&#xdb;" horiz-adv-x="694" 
d="M25 671h245v-40l-62 -6l-17 -14v-362c0 -136 51 -199 178 -199s178 63 178 199v355l-19 18l-60 9v40h211v-40l-60 -9l-18 -18v-364c0 -73 -5 -129 -44 -176c-38 -46 -111 -76 -207 -76s-169 30 -207 76s-44 102 -44 176v371l-17 14l-57 6v40zM345 891h64l110 -148h-54
l-88 96l-87 -96h-55z" />
    <glyph glyph-name="Udieresis" unicode="&#xdc;" horiz-adv-x="694" 
d="M25 671h245v-40l-62 -6l-17 -14v-362c0 -136 51 -199 178 -199s178 63 178 199v355l-19 18l-60 9v40h211v-40l-60 -9l-18 -18v-364c0 -73 -5 -129 -44 -176c-38 -46 -111 -76 -207 -76s-169 30 -207 76s-44 102 -44 176v371l-17 14l-57 6v40zM284 868c28 0 50 -23 50 -51
s-22 -50 -50 -50s-51 22 -51 50c0 29 22 51 51 51zM470 868c28 0 50 -23 50 -51s-22 -50 -50 -50s-51 22 -51 50c0 29 22 51 51 51z" />
    <glyph glyph-name="Ugrave" unicode="&#xd9;" horiz-adv-x="694" 
d="M25 671h245v-40l-62 -6l-17 -14v-362c0 -136 51 -199 178 -199s178 63 178 199v355l-19 18l-60 9v40h211v-40l-60 -9l-18 -18v-364c0 -73 -5 -129 -44 -176c-38 -46 -111 -76 -207 -76s-169 30 -207 76s-44 102 -44 176v371l-17 14l-57 6v40zM243 891h99l85 -148h-50z
" />
    <glyph glyph-name="Yacute" unicode="&#xdd;" horiz-adv-x="586" 
d="M-13 671h232v-40l-57 -6l-10 -11l153 -275l168 267l-9 14l-61 11v40h204v-40l-61 -13l-208 -333v-225l16 -14l68 -5v-41h-259v41l68 5l16 14v212l-199 349l-61 10v40zM346 892h100l-141 -148h-50z" />
    <glyph glyph-name="Ydieresis" unicode="&#x178;" horiz-adv-x="586" 
d="M-13 671h232v-40l-57 -6l-10 -11l153 -275l168 267l-9 14l-61 11v40h204v-40l-61 -13l-208 -333v-225l16 -14l68 -5v-41h-259v41l68 5l16 14v212l-199 349l-61 10v40zM200 868c28 0 50 -23 50 -51s-22 -50 -50 -50s-51 22 -51 50c0 29 22 51 51 51zM386 868
c28 0 50 -23 50 -51s-22 -50 -50 -50s-51 22 -51 50c0 29 22 51 51 51z" />
    <glyph glyph-name="Zcaron" unicode="&#x17d;" horiz-adv-x="586" 
d="M67 671h467v-42l-380 -580h302l11 13l18 119h54v-181h-494v41l379 582h-267l-19 -13l-16 -94h-55v155zM325 743h-64l-110 148h54l88 -95l87 95h55z" />
    <glyph glyph-name="aacute" unicode="&#xe1;" horiz-adv-x="507" 
d="M334 58c-63 -43 -115 -65 -164 -65c-79 0 -128 53 -128 128c0 103 92 134 292 182v32c0 79 -20 112 -92 112c-24 0 -49 -5 -76 -16v-84h-69c-23 0 -31 7 -31 31c0 61 76 113 202 113c105 0 150 -43 150 -144v-290l17 -16l53 -5v-36h-141zM334 92v176
c-139 -38 -204 -67 -204 -136c0 -52 29 -85 80 -85c33 0 74 16 124 45zM313 736h99l-146 -190h-50z" />
    <glyph glyph-name="acircumflex" unicode="&#xe2;" horiz-adv-x="507" 
d="M334 58c-63 -43 -115 -65 -164 -65c-79 0 -128 53 -128 128c0 103 92 134 292 182v32c0 79 -20 112 -92 112c-24 0 -49 -5 -76 -16v-84h-69c-23 0 -31 7 -31 31c0 61 76 113 202 113c105 0 150 -43 150 -144v-290l17 -16l53 -5v-36h-141zM334 92v176
c-139 -38 -204 -67 -204 -136c0 -52 29 -85 80 -85c33 0 74 16 124 45zM222 736h64l110 -190h-54l-88 141l-87 -141h-55z" />
    <glyph glyph-name="adieresis" unicode="&#xe4;" horiz-adv-x="507" 
d="M334 58c-63 -43 -115 -65 -164 -65c-79 0 -128 53 -128 128c0 103 92 134 292 182v32c0 79 -20 112 -92 112c-24 0 -49 -5 -76 -16v-84h-69c-23 0 -31 7 -31 31c0 61 76 113 202 113c105 0 150 -43 150 -144v-290l17 -16l53 -5v-36h-141zM334 92v176
c-139 -38 -204 -67 -204 -136c0 -52 29 -85 80 -85c33 0 74 16 124 45zM161 691c28 0 50 -23 50 -51s-22 -50 -50 -50s-51 22 -51 50c0 29 22 51 51 51zM347 691c28 0 50 -23 50 -51s-22 -50 -50 -50s-51 22 -51 50c0 29 22 51 51 51z" />
    <glyph glyph-name="agrave" unicode="&#xe0;" horiz-adv-x="507" 
d="M334 58c-63 -43 -115 -65 -164 -65c-79 0 -128 53 -128 128c0 103 92 134 292 182v32c0 79 -20 112 -92 112c-24 0 -49 -5 -76 -16v-84h-69c-23 0 -31 7 -31 31c0 61 76 113 202 113c105 0 150 -43 150 -144v-290l17 -16l53 -5v-36h-141zM334 92v176
c-139 -38 -204 -67 -204 -136c0 -52 29 -85 80 -85c33 0 74 16 124 45zM108 736h99l97 -190h-50z" />
    <glyph glyph-name="aring" unicode="&#xe5;" horiz-adv-x="507" 
d="M250 781c66 0 118 -51 118 -117s-52 -118 -118 -118s-117 52 -117 118s51 117 117 117zM250 737c-40 0 -72 -33 -72 -74c0 -40 32 -72 72 -72c41 0 74 32 74 72c0 41 -33 74 -74 74zM418 347v-290l17 -16l53 -5v-36h-141l-13 58c-63 -43 -115 -65 -164 -65
c-79 0 -128 53 -128 128c0 103 92 134 292 182v32c0 79 -20 112 -92 112c-24 0 -49 -5 -76 -16v-84h-69c-23 0 -31 7 -31 31c0 61 76 113 202 113c105 0 150 -43 150 -144zM334 268c-139 -38 -204 -67 -204 -136c0 -52 29 -85 80 -85c33 0 74 16 124 45v176z" />
    <glyph glyph-name="atilde" unicode="&#xe3;" horiz-adv-x="507" 
d="M334 58c-63 -43 -115 -65 -164 -65c-79 0 -128 53 -128 128c0 103 92 134 292 182v32c0 79 -20 112 -92 112c-24 0 -49 -5 -76 -16v-84h-69c-23 0 -31 7 -31 31c0 61 76 113 202 113c105 0 150 -43 150 -144v-290l17 -16l53 -5v-36h-141zM334 92v176
c-139 -38 -204 -67 -204 -136c0 -52 29 -85 80 -85c33 0 74 16 124 45zM365 708h41c0 -5 1 -10 1 -14c0 -66 -37 -106 -84 -106c-61 0 -114 50 -144 50c-21 0 -36 -19 -36 -53c0 -4 1 -8 1 -12h-43v10c0 73 31 110 85 110c55 0 105 -52 140 -52c26 0 39 20 39 62v5z" />
    <glyph glyph-name="brokenbar" unicode="&#xa6;" 
d="M219 699h62v-370h-62v370zM219 199h62v-370h-62v370z" />
    <glyph glyph-name="ccedilla" unicode="&#xe7;" horiz-adv-x="446" 
d="M425 42c-55 -32 -109 -49 -163 -49c-136 0 -225 100 -225 248c0 149 97 250 237 250c96 0 150 -39 150 -97c0 -31 -23 -53 -53 -53c-18 0 -33 4 -48 14v82c-15 9 -31 14 -48 14c-86 0 -147 -78 -147 -203c0 -123 66 -196 170 -196c43 0 84 14 127 42v-52zM216 0h37v-61
c7 1 13 1 19 1c48 0 76 -27 76 -72c0 -55 -44 -91 -118 -91c-20 0 -43 3 -69 10v36c18 -5 37 -8 59 -8c42 0 67 17 67 43c0 23 -18 37 -50 37c-7 0 -14 -1 -21 -2v107z" />
    <glyph glyph-name="copyright" unicode="&#xa9;" horiz-adv-x="900" 
d="M453 685c-91 0 -178 -37 -242 -102c-65 -67 -100 -151 -100 -243c0 -94 34 -178 100 -243c67 -66 149 -101 241 -101s176 35 240 101c65 67 101 153 101 243c0 92 -37 181 -100 244c-64 64 -152 101 -240 101zM453 726c101 0 202 -43 274 -116c70 -71 110 -170 110 -274
c0 -99 -42 -198 -118 -273c-72 -71 -166 -109 -272 -109c-98 0 -194 40 -267 113c-74 73 -113 169 -113 273c0 102 39 197 112 271c72 73 171 115 274 115zM609 127c-46 -16 -96 -25 -147 -25c-142 0 -241 97 -241 236c0 140 98 236 247 236c43 0 90 -7 141 -23v-120h-43
l-15 75c-25 15 -50 22 -78 22c-95 0 -165 -79 -165 -189s71 -190 160 -190c24 0 52 7 85 19l13 84h43v-125z" />
    <glyph glyph-name="degree" unicode="&#xb0;" horiz-adv-x="329" 
d="M165 710c76 0 138 -61 138 -138c0 -75 -61 -138 -139 -138c-77 0 -137 61 -137 138c0 78 62 138 138 138zM165 670c-54 0 -99 -43 -99 -98s45 -99 99 -99c55 0 98 45 98 99s-43 98 -98 98z" />
    <glyph glyph-name="divide" unicode="&#xf7;" horiz-adv-x="833" 
d="M417 530c31 0 56 -25 56 -56c0 -30 -24 -56 -56 -56c-31 0 -56 25 -56 56s26 56 56 56zM124 327h585v-57h-585v57zM417 178c31 0 56 -25 56 -56c0 -30 -24 -56 -56 -56c-31 0 -56 25 -56 56c0 32 26 56 56 56z" />
    <glyph glyph-name="eacute" unicode="&#xe9;" horiz-adv-x="491" 
d="M448 106v-55c-60 -40 -125 -60 -188 -60c-132 0 -223 99 -223 246c0 150 97 254 231 254c110 0 180 -74 180 -196c0 -11 0 -21 -1 -32h-324v-11c0 -128 67 -204 168 -204c50 0 99 20 157 58zM359 305c0 6 1 12 1 17c0 80 -39 124 -103 124c-68 0 -123 -56 -129 -141h231z
M316 736h99l-146 -190h-50z" />
    <glyph glyph-name="ecircumflex" unicode="&#xea;" horiz-adv-x="491" 
d="M448 106v-55c-60 -40 -125 -60 -188 -60c-132 0 -223 99 -223 246c0 150 97 254 231 254c110 0 180 -74 180 -196c0 -11 0 -21 -1 -32h-324v-11c0 -128 67 -204 168 -204c50 0 99 20 157 58zM359 305c0 6 1 12 1 17c0 80 -39 124 -103 124c-68 0 -123 -56 -129 -141h231z
M225 736h64l110 -190h-54l-88 141l-87 -141h-55z" />
    <glyph glyph-name="edieresis" unicode="&#xeb;" horiz-adv-x="491" 
d="M448 106v-55c-60 -40 -125 -60 -188 -60c-132 0 -223 99 -223 246c0 150 97 254 231 254c110 0 180 -74 180 -196c0 -11 0 -21 -1 -32h-324v-11c0 -128 67 -204 168 -204c50 0 99 20 157 58zM359 305c0 6 1 12 1 17c0 80 -39 124 -103 124c-68 0 -123 -56 -129 -141h231z
M164 691c28 0 50 -23 50 -51s-22 -50 -50 -50s-51 22 -51 50c0 29 22 51 51 51zM350 691c28 0 50 -23 50 -51s-22 -50 -50 -50s-51 22 -51 50c0 29 22 51 51 51z" />
    <glyph glyph-name="egrave" unicode="&#xe8;" horiz-adv-x="491" 
d="M448 106v-55c-60 -40 -125 -60 -188 -60c-132 0 -223 99 -223 246c0 150 97 254 231 254c110 0 180 -74 180 -196c0 -11 0 -21 -1 -32h-324v-11c0 -128 67 -204 168 -204c50 0 99 20 157 58zM359 305c0 6 1 12 1 17c0 80 -39 124 -103 124c-68 0 -123 -56 -129 -141h231z
M111 736h99l97 -190h-50z" />
    <glyph glyph-name="eth" unicode="&#xf0;" horiz-adv-x="528" 
d="M342 479c-24 38 -50 75 -80 111l-128 -77l-22 38l117 71l-36 41l-81 7v29l113 34l71 -73l110 66l22 -39l-103 -62c111 -128 168 -241 168 -358c0 -167 -101 -277 -231 -277c-135 0 -229 106 -229 254c0 143 101 242 246 242c19 0 40 -3 63 -7zM367 431
c-30 9 -57 13 -79 13c-101 0 -162 -72 -162 -202c0 -133 60 -210 143 -210c77 0 139 79 139 210c0 79 -11 140 -41 189z" />
    <glyph glyph-name="iacute" unicode="&#xed;" horiz-adv-x="280" 
d="M150 486h39v-429l17 -16l54 -5v-36h-225v36l53 5l17 16v362h-70v31zM199 736h99l-146 -190h-50z" />
    <glyph glyph-name="icircumflex" unicode="&#xee;" horiz-adv-x="280" 
d="M150 486h39v-429l17 -16l54 -5v-36h-225v36l53 5l17 16v362h-70v31zM108 736h64l110 -190h-54l-88 141l-87 -141h-55z" />
    <glyph glyph-name="idieresis" unicode="&#xef;" horiz-adv-x="280" 
d="M150 486h39v-429l17 -16l54 -5v-36h-225v36l53 5l17 16v362h-70v31zM47 691c28 0 50 -23 50 -51s-22 -50 -50 -50s-51 22 -51 50c0 29 22 51 51 51zM233 691c28 0 50 -23 50 -51s-22 -50 -50 -50s-51 22 -51 50c0 29 22 51 51 51z" />
    <glyph glyph-name="igrave" unicode="&#xec;" horiz-adv-x="280" 
d="M150 486h39v-429l17 -16l54 -5v-36h-225v36l53 5l17 16v362h-70v31zM-6 736h99l97 -190h-50z" />
    <glyph glyph-name="logicalnot" unicode="&#xac;" horiz-adv-x="833" 
d="M124 419h585v-245h-56v188h-529v57z" />
    <glyph glyph-name="minus" unicode="&#x2212;" horiz-adv-x="833" 
d="M124 327h585v-58h-585v58z" />
    <glyph glyph-name="mu" unicode="&#xb5;" horiz-adv-x="547" 
d="M80 94c-39 -199 -23 -298 -80 -298c-24 0 -39 16 -39 43c0 41 43 152 83 342l53 251h72l-51 -240c-4 -20 -6 -39 -6 -55c0 -54 29 -85 78 -85c63 0 107 44 126 131l54 249h73l-56 -259c-6 -29 -10 -50 -10 -67c0 -32 19 -53 45 -53c22 0 43 12 57 34c23 35 22 75 39 75
c8 0 13 -7 13 -18c0 -12 -5 -40 -20 -73c-24 -53 -61 -80 -112 -80c-43 0 -73 34 -73 93v11c-30 -71 -75 -106 -137 -106c-63 0 -100 36 -109 105z" />
    <glyph glyph-name="multiply" unicode="&#xd7;" horiz-adv-x="833" 
d="M186 571l233 -233l232 233l40 -40l-232 -233l232 -232l-40 -40l-232 232l-233 -232l-39 40l232 232l-232 233z" />
    <glyph glyph-name="ntilde" unicode="&#xf1;" horiz-adv-x="568" 
d="M30 0v36l54 5l17 16v362h-71v31l116 36h38v-55c67 37 118 60 161 60c87 0 135 -52 135 -152v-282l17 -16l54 -5v-36h-219v36l48 5l17 16v265c0 73 -27 103 -101 103c-32 0 -70 -12 -112 -33v-335l17 -16l48 -5v-36h-219zM384 708h41c0 -5 1 -10 1 -14
c0 -66 -37 -106 -84 -106c-61 0 -114 50 -144 50c-21 0 -36 -19 -36 -53c0 -4 1 -8 1 -12h-43v10c0 73 31 110 85 110c55 0 105 -52 140 -52c26 0 39 20 39 62v5z" />
    <glyph glyph-name="oacute" unicode="&#xf3;" horiz-adv-x="539" 
d="M269 491c135 0 233 -102 233 -250s-99 -250 -233 -250s-232 102 -232 250c0 149 97 250 232 250zM269 447c-81 0 -138 -76 -138 -206c0 -129 58 -207 138 -207c81 0 139 77 139 207c0 129 -58 206 -139 206zM329 736h99l-146 -190h-50z" />
    <glyph glyph-name="ocircumflex" unicode="&#xf4;" horiz-adv-x="539" 
d="M269 491c135 0 233 -102 233 -250s-99 -250 -233 -250s-232 102 -232 250c0 149 97 250 232 250zM269 447c-81 0 -138 -76 -138 -206c0 -129 58 -207 138 -207c81 0 139 77 139 207c0 129 -58 206 -139 206zM238 736h64l110 -190h-54l-88 141l-87 -141h-55z" />
    <glyph glyph-name="odieresis" unicode="&#xf6;" horiz-adv-x="539" 
d="M269 491c135 0 233 -102 233 -250s-99 -250 -233 -250s-232 102 -232 250c0 149 97 250 232 250zM269 447c-81 0 -138 -76 -138 -206c0 -129 58 -207 138 -207c81 0 139 77 139 207c0 129 -58 206 -139 206zM177 691c28 0 50 -23 50 -51s-22 -50 -50 -50s-51 22 -51 50
c0 29 22 51 51 51zM363 691c28 0 50 -23 50 -51s-22 -50 -50 -50s-51 22 -51 50c0 29 22 51 51 51z" />
    <glyph glyph-name="ograve" unicode="&#xf2;" horiz-adv-x="539" 
d="M269 491c135 0 233 -102 233 -250s-99 -250 -233 -250s-232 102 -232 250c0 149 97 250 232 250zM269 447c-81 0 -138 -76 -138 -206c0 -129 58 -207 138 -207c81 0 139 77 139 207c0 129 -58 206 -139 206zM124 736h99l97 -190h-50z" />
    <glyph glyph-name="onehalf" unicode="&#xbd;" horiz-adv-x="885" 
d="M195 668h18v-373l8 -9l68 -3v-25h-211v25l72 4l8 11v322l-99 -16v25zM626 671h61l-428 -671h-61zM624 47h189l12 51h28v-98h-292v38c138 107 217 173 217 251c0 57 -31 90 -84 90c-19 0 -37 -4 -56 -14v-64c-9 -6 -18 -9 -28 -9c-22 0 -35 13 -35 33c0 42 55 85 133 85
c82 0 131 -45 131 -114c0 -75 -76 -143 -215 -249z" />
    <glyph glyph-name="onequarter" unicode="&#xbc;" horiz-adv-x="885" 
d="M195 668h18v-373l8 -9l68 -3v-25h-211v25l72 4l8 11v322l-99 -16v25zM626 671h61l-428 -671h-61zM767 406h36v-251h72v-39h-72v-138h-48v138h-203v39zM755 341l-156 -186h156v186z" />
    <glyph glyph-name="onesuperior" unicode="&#xb9;" horiz-adv-x="350" 
d="M195 668h18v-373l8 -9l68 -3v-25h-211v25l72 4l8 11v322l-99 -16v25z" />
    <glyph glyph-name="otilde" unicode="&#xf5;" horiz-adv-x="539" 
d="M269 491c135 0 233 -102 233 -250s-99 -250 -233 -250s-232 102 -232 250c0 149 97 250 232 250zM269 447c-81 0 -138 -76 -138 -206c0 -129 58 -207 138 -207c81 0 139 77 139 207c0 129 -58 206 -139 206zM381 708h41c0 -5 1 -10 1 -14c0 -66 -37 -106 -84 -106
c-61 0 -114 50 -144 50c-21 0 -36 -19 -36 -53c0 -4 1 -8 1 -12h-43v10c0 73 31 110 85 110c55 0 105 -52 140 -52c26 0 39 20 39 62v5z" />
    <glyph glyph-name="plusminus" unicode="&#xb1;" horiz-adv-x="833" 
d="M388 576h58v-168h263v-57h-263v-168h-58v168h-264v57h264v168zM124 77h585v-57h-585v57z" />
    <glyph glyph-name="registered" unicode="&#xae;" horiz-adv-x="900" 
d="M453 685c-91 0 -178 -37 -242 -102c-65 -67 -100 -151 -100 -243c0 -94 34 -178 100 -243c67 -66 149 -101 241 -101s176 35 240 101c65 67 101 153 101 243c0 92 -37 181 -100 244c-64 64 -152 101 -240 101zM453 726c101 0 202 -43 274 -116c70 -71 110 -170 110 -274
c0 -99 -42 -198 -118 -273c-72 -71 -166 -109 -272 -109c-98 0 -194 40 -267 113c-74 73 -113 169 -113 273c0 102 39 197 112 271c72 73 171 115 274 115zM254 560h211c45 0 80 -1 109 -18c32 -19 53 -55 53 -87c0 -60 -40 -99 -121 -117c31 -5 54 -17 72 -39
c24 -28 27 -61 36 -84c17 -43 40 -55 97 -55v-36c-25 -5 -46 -8 -62 -8c-31 0 -56 9 -79 29c-32 27 -37 73 -55 114c-20 45 -45 57 -99 57c-9 0 -18 0 -29 -1v-150l63 -7v-37h-191v37l53 7v351l-58 10v34zM387 355c9 -1 17 -1 25 -1c84 0 127 29 127 83c0 55 -44 86 -128 86
c-8 0 -16 -1 -24 -1v-167z" />
    <glyph glyph-name="scaron" unicode="&#x161;" horiz-adv-x="400" 
d="M344 469v-113h-49l-8 71c-26 14 -50 21 -74 21c-53 0 -83 -27 -83 -72c0 -43 29 -64 85 -91c36 -17 74 -31 107 -58c24 -19 37 -49 37 -86c0 -93 -69 -150 -187 -150c-50 0 -94 8 -130 21v130h48l12 -85c28 -16 57 -23 89 -23c53 0 90 33 90 80c0 52 -36 70 -102 100
c-85 38 -129 70 -129 137c0 88 63 140 177 140c44 0 83 -7 117 -22zM65 736h55l87 -141l88 141h54l-110 -190h-64z" />
    <glyph glyph-name="thorn" unicode="&#xfe;" horiz-adv-x="551" 
d="M28 -218v36l53 5l17 16v830h-78v31l123 36h38v-305c52 40 99 60 147 60c110 0 193 -93 193 -233c0 -158 -97 -261 -246 -261c-26 0 -57 3 -94 9v-167l18 -16l63 -5v-36h-234zM181 58c33 -11 62 -16 86 -16c97 0 166 79 166 202c0 115 -59 184 -146 184
c-33 0 -68 -11 -106 -34v-336z" />
    <glyph glyph-name="threequarters" unicode="&#xbe;" horiz-adv-x="886" 
d="M200 470c70 -5 110 -42 110 -96c0 -67 -63 -123 -159 -123c-75 0 -125 36 -125 66c0 18 14 31 35 31c6 0 12 -1 19 -3l20 -51c17 -10 34 -14 53 -14c57 0 99 41 99 94c0 48 -33 75 -93 75c-10 0 -22 0 -34 -2v35h14c63 0 97 29 97 77s-31 78 -80 78c-22 0 -41 -5 -60 -17
v-57c-8 -6 -15 -7 -25 -7c-20 0 -34 13 -34 32c0 40 54 80 132 80c76 0 125 -40 125 -101c0 -46 -33 -80 -94 -97zM626 671h61l-428 -671h-61zM767 406h36v-251h72v-39h-72v-138h-48v138h-203v39zM755 341l-156 -186h156v186z" />
    <glyph glyph-name="threesuperior" unicode="&#xb3;" horiz-adv-x="350" 
d="M200 470c70 -5 110 -42 110 -96c0 -67 -63 -123 -159 -123c-75 0 -125 36 -125 66c0 18 14 31 35 31c6 0 12 -1 19 -3l20 -51c17 -10 34 -14 53 -14c57 0 99 41 99 94c0 48 -33 75 -93 75c-10 0 -22 0 -34 -2v35h14c63 0 97 29 97 77s-31 78 -80 78c-22 0 -41 -5 -60 -17
v-57c-8 -6 -15 -7 -25 -7c-20 0 -34 13 -34 32c0 40 54 80 132 80c76 0 125 -40 125 -101c0 -46 -33 -80 -94 -97z" />
    <glyph glyph-name="trademark" unicode="&#x2122;" horiz-adv-x="822" 
d="M256 639v-214l38 -5v-21h-122v21l39 4v215h-52l-8 -6l-6 -40h-27v69h229v-69h-26l-6 40l-7 6h-52zM378 399v21l31 5v209l-32 5v23h102v-12l68 -180l69 179v13h100v-23l-32 -5v-209l32 -5v-21h-107v21l30 5v212l-92 -238h-22l-88 238v-212l31 -5v-21h-90z" />
    <glyph glyph-name="twosuperior" unicode="&#xb2;" horiz-adv-x="350" 
d="M89 305h189l12 51h28v-98h-292v38c138 107 217 173 217 251c0 57 -31 90 -84 90c-19 0 -37 -4 -56 -14v-64c-9 -6 -18 -9 -28 -9c-22 0 -35 13 -35 33c0 42 55 85 133 85c82 0 131 -45 131 -114c0 -75 -76 -143 -215 -249z" />
    <glyph glyph-name="uacute" unicode="&#xfa;" horiz-adv-x="569" 
d="M142 491h38v-331c0 -72 30 -106 97 -106c37 0 75 10 116 30v339h-71v31l116 37h38v-434l18 -16l47 -5v-36h-148v56c-60 -43 -112 -66 -162 -66c-86 0 -134 53 -134 153v280h-71v31zM344 736h99l-146 -190h-50z" />
    <glyph glyph-name="ucircumflex" unicode="&#xfb;" horiz-adv-x="569" 
d="M142 491h38v-331c0 -72 30 -106 97 -106c37 0 75 10 116 30v339h-71v31l116 37h38v-434l18 -16l47 -5v-36h-148v56c-60 -43 -112 -66 -162 -66c-86 0 -134 53 -134 153v280h-71v31zM253 736h64l110 -190h-54l-88 141l-87 -141h-55z" />
    <glyph glyph-name="udieresis" unicode="&#xfc;" horiz-adv-x="569" 
d="M142 491h38v-331c0 -72 30 -106 97 -106c37 0 75 10 116 30v339h-71v31l116 37h38v-434l18 -16l47 -5v-36h-148v56c-60 -43 -112 -66 -162 -66c-86 0 -134 53 -134 153v280h-71v31zM192 691c28 0 50 -23 50 -51s-22 -50 -50 -50s-51 22 -51 50c0 29 22 51 51 51zM378 691
c28 0 50 -23 50 -51s-22 -50 -50 -50s-51 22 -51 50c0 29 22 51 51 51z" />
    <glyph glyph-name="ugrave" unicode="&#xf9;" horiz-adv-x="569" 
d="M142 491h38v-331c0 -72 30 -106 97 -106c37 0 75 10 116 30v339h-71v31l116 37h38v-434l18 -16l47 -5v-36h-148v56c-60 -43 -112 -66 -162 -66c-86 0 -134 53 -134 153v280h-71v31zM139 736h99l97 -190h-50z" />
    <glyph glyph-name="yacute" unicode="&#xfd;" horiz-adv-x="495" 
d="M-1 481h217v-37l-53 -4l-12 -16l120 -311l125 311l-8 16l-54 4v37h178v-37l-58 -8l-200 -486c-47 -113 -95 -168 -160 -168c-42 0 -69 23 -69 56c0 20 9 38 26 54l96 -38c27 29 56 79 81 150l-168 434l-61 6v37zM326 736h99l-146 -190h-50z" />
    <glyph glyph-name="ydieresis" unicode="&#xff;" horiz-adv-x="495" 
d="M-1 481h217v-37l-53 -4l-12 -16l120 -311l125 311l-8 16l-54 4v37h178v-37l-58 -8l-200 -486c-47 -113 -95 -168 -160 -168c-42 0 -69 23 -69 56c0 20 9 38 26 54l96 -38c27 29 56 79 81 150l-168 434l-61 6v37zM174 691c28 0 50 -23 50 -51s-22 -50 -50 -50
s-51 22 -51 50c0 29 22 51 51 51zM360 691c28 0 50 -23 50 -51s-22 -50 -50 -50s-51 22 -51 50c0 29 22 51 51 51z" />
    <glyph glyph-name="zcaron" unicode="&#x17e;" horiz-adv-x="468" 
d="M45 0v50l267 385h-185l-14 -16l-11 -77h-47v139h361v-38l-277 -397h215l15 16l11 85h51v-147h-386zM104 736h55l87 -141l88 141h54l-110 -190h-64z" />
  </font>
</defs>
</svg>
